<svg xmlns="http://www.w3.org/2000/svg" xmlns:xlink="http://www.w3.org/1999/xlink" width="1080" zoomAndPan="magnify" viewBox="0 0 810 809.999993" height="1080" preserveAspectRatio="xMidYMid meet" version="1.2"><defs><clipPath id="ceb201df59"><path d="M 140 96.1875 L 672 96.1875 L 672 156 L 140 156 Z M 140 96.1875 "/></clipPath></defs><g id="23a2063828"><path style=" stroke:none;fill-rule:nonzero;fill:#ffffff;fill-opacity:1;" d="M 232.6875 304.042969 L 578.796875 304.042969 L 543.164062 185.269531 L 268.320312 185.269531 Z M 232.6875 304.042969 "/><path style=" stroke:none;fill-rule:nonzero;fill:#ffffff;fill-opacity:1;" d="M 0.902344 250.625 L 202.578125 301.042969 L 238.582031 181.050781 L 84.902344 142.628906 Z M 0.902344 250.625 "/><g clip-rule="nonzero" clip-path="url(#ceb201df59)"><path style=" stroke:none;fill-rule:nonzero;fill:#ffffff;fill-opacity:1;" d="M 552.382812 96.1875 L 259.117188 96.1875 L 140.535156 125.941406 L 259.101562 155.574219 L 552.382812 155.574219 L 671.171875 125.882812 Z M 552.382812 96.1875 "/></g><path style=" stroke:none;fill-rule:nonzero;fill:#ffffff;fill-opacity:1;" d="M 235.65625 333.734375 L 405.699219 713.160156 L 575.828125 333.734375 Z M 235.65625 333.734375 "/><path style=" stroke:none;fill-rule:nonzero;fill:#ffffff;fill-opacity:1;" d="M 17.738281 285.4375 L 351.90625 665.753906 L 202.132812 331.539062 Z M 17.738281 285.4375 "/><path style=" stroke:none;fill-rule:nonzero;fill:#ffffff;fill-opacity:1;" d="M 572.902344 181.050781 L 608.90625 301.042969 L 810.582031 250.625 L 726.582031 142.628906 Z M 572.902344 181.050781 "/><path style=" stroke:none;fill-rule:nonzero;fill:#ffffff;fill-opacity:1;" d="M 459.488281 665.738281 L 793.734375 285.4375 L 609.351562 331.539062 Z M 459.488281 665.738281 "/></g></svg>