<svg viewBox="0 0 32 32" xmlns="http://www.w3.org/2000/svg"><g data-name="Layer 16"><path d="M30 28H2a1 1 0 0 1-1-1V5a1 1 0 0 1 1-1h28a1 1 0 0 1 1 1v22a1 1 0 0 1-1 1ZM3 26h26V6H3Z" fill="#ffffff" class="fill-101820"></path><path d="M16 17.37a3 3 0 0 1-1.95-.73L1.35 5.76a1 1 0 1 1 1.3-1.52l12.7 10.89a1 1 0 0 0 1.3 0l12.7-10.89a1 1 0 1 1 1.3 1.52L18 16.64a3 3 0 0 1-2 .73Z" fill="#ffffff" class="fill-101820"></path><path transform="rotate(-33.69 6.494 21.004)" d="M1.09 20h10.82v2H1.09z" fill="#ffffff" class="fill-101820"></path><path transform="rotate(-56.31 25.5 21.003)" d="M24.5 15.59h2v10.82h-2z" fill="#ffffff" class="fill-101820"></path></g></svg>