<svg width="76" height="76" viewBox="0 0 76 76" fill="none" xmlns="http://www.w3.org/2000/svg">
<mask id="mask0_107_110" style="mask-type:luminance" maskUnits="userSpaceOnUse" x="6" y="0" width="64" height="76">
<path d="M6.84961 0.562962H69.2113V75.7185H6.84961V0.562962Z" fill="white"/>
</mask>
<g mask="url(#mask0_107_110)">
<path d="M38.1359 75.6361C37.5546 75.6361 36.9708 75.4645 36.4697 75.1163C9.09383 56.1669 6.91602 37.724 6.91602 15.5819C6.91602 14.1782 7.91256 12.9701 9.29212 12.7103C24.1549 9.87091 36.3088 1.26667 36.4294 1.17834C37.4476 0.44971 38.8191 0.44971 39.8373 1.17834C39.9578 1.2641 52.1118 9.87091 66.9746 12.7103C68.3541 12.9727 69.3507 14.1782 69.3507 15.5819C69.3507 37.724 67.1725 56.1669 39.7969 75.1163C39.3014 75.4645 38.7172 75.6361 38.1359 75.6361ZM12.7776 17.9551C12.9327 38 15.4484 52.8265 38.1359 69.1319C60.8238 52.8265 63.3391 38 63.4945 17.9551C51.6243 15.2176 41.9293 9.52785 38.1359 7.07955C34.3399 9.52785 24.645 15.2147 12.7776 17.9551Z" fill="#003781"/>
</g>
<path d="M60.0465 20.3982C50.3167 17.7436 42.2293 13.3425 38.275 10.9529C38.1892 10.8993 38.0847 10.8993 37.9964 10.9529C34.0399 13.3425 25.9521 17.7436 16.2248 20.3982C16.1072 20.4331 16.024 20.5401 16.0269 20.6632C16.3322 36.0633 18.1941 50.0275 37.9722 65.0204C38.0206 65.0552 38.0767 65.0739 38.1357 65.0739C38.1947 65.0739 38.2482 65.0552 38.2992 65.0204C58.0776 50.0275 59.9395 36.0608 60.2448 20.6632C60.2474 20.5401 60.1645 20.4331 60.0465 20.3982ZM54.1288 31.8792L39.5691 46.4378C38.9394 47.0649 38.117 47.3834 37.292 47.3834C36.475 47.3834 35.6606 47.0756 35.0335 46.4565L26.5708 38.1554C25.3012 36.9096 25.2795 34.8711 26.5282 33.6015C27.7737 32.3319 29.8151 32.3103 31.0847 33.5586L37.2678 39.6233L49.5694 27.3228C50.8284 26.0638 52.8698 26.0638 54.1288 27.3228C55.3878 28.5788 55.3878 30.6203 54.1288 31.8792Z" fill="#232121"/>
</svg>
