<svg width="76" height="76" viewBox="0 0 76 76" fill="none" xmlns="http://www.w3.org/2000/svg">
<mask id="mask0_108_121" style="mask-type:luminance" maskUnits="userSpaceOnUse" x="1" y="67" width="74" height="9">
<path d="M1.13965 67.9309H74.8878V76H1.13965V67.9309Z" fill="white"/>
</mask>
<g mask="url(#mask0_108_121)">
<path d="M72.824 67.958H3.20787C2.06985 67.958 1.15137 68.8794 1.15137 70.0141V75.9216H74.8779V70.0141C74.8779 68.8794 73.9591 67.958 72.824 67.958Z" fill="#232121"/>
</g>
<path d="M10.4714 59.0019V61.319H9.14386C8.12129 61.319 7.29443 62.1455 7.29443 63.1644V66.7316H23.4349V63.1644C23.4349 62.1455 22.6081 61.319 21.5855 61.319H20.258V37.7394H21.5855C22.6081 37.7394 23.4349 36.9126 23.4349 35.8937V32.3268H7.29443V35.8937C7.29443 36.9126 8.12129 37.7394 9.14386 37.7394H10.4714V59.0019Z" fill="#232121"/>
<path d="M33.1177 59.0019V61.319H31.7898C30.7702 61.319 29.9434 62.1455 29.9434 63.1644V66.7316H46.0842V63.1644C46.0842 62.1455 45.2573 61.319 44.2377 61.319H42.9098V37.7394H44.2377C45.2573 37.7394 46.0842 36.9126 46.0842 35.8937V32.3268H29.9434V35.8937C29.9434 36.9126 30.7702 37.7394 31.7898 37.7394H33.1177V59.0019Z" fill="#232121"/>
<path d="M55.7696 59.0019V61.319H54.4417C53.4195 61.319 52.5923 62.1455 52.5923 63.1644V66.7316H68.7331V63.1644C68.7331 62.1455 67.9063 61.319 66.8837 61.319H65.5558V37.7394H66.8837C67.9063 37.7394 68.7331 36.9126 68.7331 35.8937V32.3268H52.5923V35.8937C52.5923 36.9126 53.4195 37.7394 54.4417 37.7394H55.7696V59.0019Z" fill="#232121"/>
<mask id="mask1_108_121" style="mask-type:luminance" maskUnits="userSpaceOnUse" x="1" y="27" width="74" height="5">
<path d="M1.13965 27.3037H74.8878V31.1506H1.13965V27.3037Z" fill="white"/>
</mask>
<g mask="url(#mask1_108_121)">
<path d="M1.15137 29.5061C1.15137 30.3861 1.86533 31.1 2.7457 31.1H73.2836C74.1669 31.1 74.8779 30.3861 74.8779 29.5061V27.3821H1.15137V29.5061Z" fill="#232121"/>
</g>
<mask id="mask2_108_121" style="mask-type:luminance" maskUnits="userSpaceOnUse" x="1" y="0" width="74" height="27">
<path d="M1.13965 0H74.8878V26.1778H1.13965V0Z" fill="white"/>
</mask>
<g mask="url(#mask2_108_121)">
<path d="M60.548 19.4065L38.0145 7.76346L15.4809 19.4065H12.4759L38.0145 6.20799L63.5534 19.4065H60.548ZM38.0145 0.078434L1.15137 19.1279V26.1554H74.8779V19.1279L38.0145 0.078434Z" fill="#003781"/>
</g>
</svg>
