<svg width="125" height="129" viewBox="0 0 125 129" fill="none" xmlns="http://www.w3.org/2000/svg">
<path d="M122.932 36.1594C120.694 33.9789 118.445 31.8127 116.185 29.6609C114.674 28.2188 112.885 28.1137 111.411 29.5844C108.937 32.0442 106.59 34.6309 104.232 37.1162C108.086 40.8289 111.972 44.5784 115.728 48.1978C118.223 45.7019 120.853 43.2166 123.298 40.5645C124.536 39.2245 124.258 37.449 122.932 36.1594Z" fill="#003781"/>
<path d="M77.7665 18.9272C77.7665 19.0317 77.7665 19.1337 77.7665 19.2382H84.9593C88.491 19.2382 91.352 22.1005 91.352 25.6285V43.7418L99.2011 35.5835V17.775C99.2011 14.2465 96.3432 11.3848 92.8121 11.3848H77.4834C77.6682 12.2725 77.759 13.2355 77.7627 14.2975C77.7696 15.8297 77.7665 17.3327 77.7665 18.9272Z" fill="#232121"/>
<mask id="mask0_129_13" style="mask-type:luminance" maskUnits="userSpaceOnUse" x="0" y="11" width="100" height="118">
<path d="M0.257568 11.3076H99.2888V129H0.257568V11.3076Z" fill="white"/>
</mask>
<g mask="url(#mask0_129_13)">
<path d="M91.352 114.749C91.352 118.277 88.4909 121.139 84.9592 121.139H14.5704C11.0424 121.139 8.18072 118.277 8.18072 114.749V25.6285C8.18072 22.1005 11.0424 19.2382 14.5704 19.2382H20.2129C20.2129 18.6734 20.2023 18.0867 20.188 17.4889C20.1482 15.6375 20.1046 13.5547 20.4773 11.3848H6.71753C3.19018 11.3848 0.328491 14.2465 0.328491 17.775V122.602C0.328491 126.131 3.19018 128.993 6.71753 128.993H92.8121C96.3432 128.993 99.2011 126.131 99.2011 122.602V72.3717L91.352 80.5257V114.749Z" fill="#232121"/>
</g>
<path d="M48.9641 7.42111C51.1987 7.39249 53.0389 9.18914 53.0713 11.4244C53.1005 13.6378 51.3001 15.5253 49.091 15.5937C46.9068 15.6628 44.9764 13.8226 44.926 11.6234C44.875 9.28681 46.6387 7.45035 48.9641 7.42111ZM24.9035 20.0972C24.8892 20.644 25.3272 21.0931 25.874 21.0931H72.0903C72.6266 21.0931 73.0614 20.6583 73.0614 20.122C73.0614 18.1332 73.0645 16.2245 73.0614 14.3078C73.0502 10.3338 71.3481 8.67092 67.3206 8.67465C64.3936 8.67465 62.5976 8.67465 59.7216 8.67465C57.7439 3.19763 54.0567 0.237645 49.1601 0.103892C44.3027 -0.0304834 40.496 2.67568 38.229 8.00091C37.9031 8.76548 37.4352 8.66719 36.8921 8.66719C34.0995 8.67465 32.4335 8.6423 29.6446 8.68585C27.4175 8.72193 25.5337 9.97859 25.1605 11.9096C24.6391 14.6015 24.9832 17.3325 24.9035 20.0972Z" fill="#232121"/>
<path d="M18.4816 106.453C18.4816 107.946 19.6916 109.156 21.184 109.156H76.7449C78.2368 109.156 79.4468 107.946 79.4468 106.453C79.4468 104.961 78.2368 103.747 76.7449 103.747H21.184C19.6916 103.747 18.4816 104.961 18.4816 106.453Z" fill="#232121"/>
<path d="M35.085 37.5903C35.085 39.0834 36.295 40.2934 37.7868 40.2934H76.2012C77.6937 40.2934 78.9074 39.0834 78.9074 37.5903C78.9074 36.0948 77.6937 34.8848 76.2012 34.8848H37.7868C36.295 34.8848 35.085 36.0948 35.085 37.5903Z" fill="#232121"/>
<path d="M37.7868 57.475H62.3475C63.84 57.475 65.0493 56.265 65.0493 54.7726C65.0493 53.2801 63.84 52.0664 62.3475 52.0664H37.7868C36.295 52.0664 35.085 53.2801 35.085 54.7726C35.085 56.265 36.295 57.475 37.7868 57.475Z" fill="#232121"/>
<path d="M65.5526 69.2778H37.7868C37.0409 69.2778 36.3671 69.582 35.8782 70.071C35.3817 70.5637 35.0775 71.2518 35.085 72.0126C35.103 73.4982 36.3348 74.6864 37.8229 74.6864H60.6921C60.7394 74.6864 60.7867 74.6647 60.819 74.6317L65.6795 69.582C65.7921 69.4657 65.7088 69.2778 65.5526 69.2778Z" fill="#232121"/>
<path d="M54.4082 91.9223C54.4879 91.9223 54.5569 91.875 54.5781 91.7991L56.2011 86.7495C56.241 86.6331 56.1539 86.5137 56.0307 86.5137H37.7868C37.0409 86.5137 36.3671 86.8179 35.8782 87.3069C35.3817 87.8033 35.0775 88.492 35.085 89.2522C35.103 90.7378 36.3348 91.9223 37.8229 91.9223H54.4082Z" fill="#232121"/>
<path d="M21.622 37.9746C21.6549 37.7787 21.7594 37.6088 21.9224 37.4925C22.0456 37.406 22.1943 37.3588 22.3467 37.355C22.3896 37.355 22.4332 37.3625 22.473 37.3656C22.669 37.4023 22.8388 37.5074 22.9551 37.6704L24.1757 39.2929L26.7071 35.4203C26.8377 35.1957 27.0803 35.0582 27.341 35.0582C27.4754 35.0582 27.6054 35.0943 27.7217 35.1596C27.8916 35.261 28.011 35.424 28.062 35.62C28.1093 35.8078 28.08 36.0113 27.9786 36.1774L25.1425 40.5719C25.056 40.7132 24.8855 40.9956 24.5197 41.1119C24.4656 41.1262 24.3605 41.1549 24.2336 41.1586H24.2298C24.0233 41.1586 23.6289 41.0827 23.2737 40.5825L21.7451 38.5252C21.6332 38.366 21.5896 38.17 21.622 37.9746ZM18.4816 37.5902C18.4816 41.097 21.3358 43.9556 24.8457 43.9556C28.355 43.9556 31.2092 41.097 31.2092 37.5902C31.2092 34.0765 28.355 31.2217 24.8457 31.2217C21.3358 31.2217 18.4816 34.0765 18.4816 37.5902Z" fill="#003781"/>
<path d="M21.622 55.1565C21.6549 54.9574 21.7594 54.7907 21.9224 54.6743C22.0456 54.5879 22.1943 54.5406 22.3467 54.5368C22.3896 54.5368 22.4332 54.5443 22.473 54.548C22.669 54.5841 22.8388 54.6893 22.9551 54.8522L24.1757 56.4753L26.7071 52.6027C26.8377 52.3781 27.0803 52.24 27.341 52.24C27.4754 52.24 27.6054 52.2767 27.7217 52.3414C27.8916 52.4428 28.011 52.6058 28.062 52.8018C28.1093 52.9903 28.08 53.1931 27.9786 53.3598L25.1425 57.7538C25.056 57.8912 24.8855 58.1811 24.5197 58.2937C24.4656 58.3081 24.3605 58.3373 24.2336 58.3404H24.2298C24.0233 58.3404 23.6289 58.2645 23.2737 57.765L21.7451 55.707C21.6332 55.5478 21.5896 55.3518 21.622 55.1565ZM24.8457 61.1374C28.355 61.1374 31.2092 58.2788 31.2092 54.7726C31.2092 51.2621 28.355 48.4072 24.8457 48.4072C21.3358 48.4072 18.4816 51.2621 18.4816 54.7726C18.4816 58.2788 21.3358 61.1374 24.8457 61.1374Z" fill="#003781"/>
<path d="M21.622 72.3677C21.6549 72.168 21.7594 72.0019 21.9224 71.8856C22.0456 71.7985 22.1943 71.7518 22.3467 71.7481C22.3896 71.7481 22.4332 71.7518 22.473 71.7587C22.669 71.7916 22.8388 71.9005 22.9551 72.0635L24.1757 73.686L26.7071 69.8133C26.8377 69.5888 27.0803 69.4475 27.341 69.4475C27.4754 69.4475 27.6054 69.4874 27.7217 69.5527C27.8916 69.6541 28.011 69.8171 28.062 70.0093C28.1093 70.2009 28.08 70.4006 27.9786 70.5704L25.1425 74.965C25.056 75.1025 24.8855 75.3887 24.5197 75.5013C24.4656 75.5193 24.3605 75.5479 24.2336 75.5479H24.2298C24.0233 75.5479 23.6289 75.4758 23.2737 74.9756L21.7451 72.9183C21.6332 72.759 21.5896 72.5593 21.622 72.3677ZM24.8457 78.3486C28.355 78.3486 31.2092 75.4901 31.2092 71.9833C31.2092 68.4696 28.355 65.6147 24.8457 65.6147C21.3358 65.6147 18.4816 68.4696 18.4816 71.9833C18.4816 75.4901 21.3358 78.3486 24.8457 78.3486Z" fill="#003781"/>
<path d="M21.622 89.6041C21.6549 89.4087 21.7594 89.2383 21.9224 89.1263C22.0456 89.0355 22.1943 88.9882 22.3467 88.9882C22.3896 88.9882 22.4332 88.9919 22.473 88.9994C22.669 89.0317 22.8388 89.1406 22.9551 89.2999L24.1757 90.9229L26.7071 87.0541C26.8377 86.8258 27.0803 86.6883 27.341 86.6883C27.4754 86.6883 27.6054 86.7243 27.7217 86.7897C27.8916 86.8948 28.011 87.0541 28.062 87.2494C28.1093 87.4379 28.08 87.6407 27.9786 87.8112L25.1425 92.2014C25.056 92.3432 24.8855 92.6294 24.5197 92.7414C24.4656 92.7594 24.3605 92.7886 24.2336 92.7886H24.2298C24.0233 92.7886 23.6289 92.7127 23.2737 92.2126L21.7451 90.1546C21.6332 89.9954 21.5896 89.8 21.622 89.6041ZM24.8457 95.585C28.355 95.585 31.2092 92.7308 31.2092 89.2202C31.2092 85.7097 28.355 82.8555 24.8457 82.8555C21.3358 82.8555 18.4816 85.7097 18.4816 89.2202C18.4816 92.7308 21.3358 95.585 24.8457 95.585Z" fill="#003781"/>
<path d="M99.3094 35.4712L99.2012 35.5832V35.5869L99.3094 35.4712Z" fill="#232121"/>
<path d="M66.4292 76.4179C72.1339 78.2077 76.0059 81.9789 78.0091 87.6084C89.5268 75.6391 101.012 63.7095 112.4 51.8783C108.546 48.1687 104.638 44.405 100.798 40.7134C89.3961 52.5595 77.9326 64.4666 66.4292 76.4179Z" fill="#003781"/>
<path d="M64.1802 79.7868C62.5105 84.9814 60.837 90.194 59.1057 95.5846C64.51 93.6212 69.6784 91.7449 74.8326 89.8718C74.1657 84.8072 68.5045 79.4533 64.1802 79.7868Z" fill="#003781"/>
</svg>
