<svg xmlns="http://www.w3.org/2000/svg" xmlns:xlink="http://www.w3.org/1999/xlink" width="1080" zoomAndPan="magnify" viewBox="0 0 810 809.999993" height="1080" preserveAspectRatio="xMidYMid meet" version="1.2"><g id="fccefb8b0a"><path style=" stroke:none;fill-rule:evenodd;fill:#003781;fill-opacity:1;" d="M 787.277344 266.75 C 803.144531 310.144531 811.796875 357.023438 811.796875 405.917969 C 811.796875 630.078125 630.078125 811.796875 405.917969 811.796875 C 311.722656 811.796875 225.003906 779.6875 156.136719 725.847656 L 114.535156 762.058594 C 110.90625 765.25 106.105469 766.054688 101.597656 764.296875 C 97.125 762.535156 94.15625 758.722656 93.609375 753.886719 L 77.078125 605.851562 C 76.566406 601.453125 78.214844 597.457031 81.625 594.636719 C 85.03125 591.8125 89.285156 591.007812 93.5 592.328125 L 230.5 635.574219 C 235.011719 636.96875 238.160156 640.449219 239.113281 645.066406 C 240.066406 649.6875 238.566406 654.121094 235.011719 657.238281 L 198.652344 688.867188 C 256.746094 731.457031 328.363281 756.597656 405.917969 756.597656 C 599.582031 756.597656 756.636719 599.582031 756.636719 405.917969 C 756.636719 366.625 750.148438 328.875 738.273438 293.617188 C 736.476562 288.300781 738.234375 282.695312 742.746094 279.359375 L 767.851562 260.886719 C 771.1875 258.429688 775.109375 257.769531 779.03125 258.945312 C 782.988281 260.152344 785.882812 262.867188 787.277344 266.75 Z M 787.277344 266.75 "/><path style=" stroke:none;fill-rule:evenodd;fill:#003781;fill-opacity:1;" d="M 405.917969 0 C 500.109375 0 586.792969 32.105469 655.660156 85.949219 L 697.257812 49.734375 C 700.925781 46.585938 705.691406 45.742188 710.199219 47.5 C 714.707031 49.257812 717.636719 53.070312 718.1875 57.910156 L 734.753906 205.945312 C 735.230469 210.34375 733.617188 214.339844 730.171875 217.160156 C 726.765625 219.984375 722.550781 220.789062 718.335938 219.46875 L 581.292969 176.222656 C 576.785156 174.828125 573.671875 171.347656 572.679688 166.726562 C 571.726562 162.109375 573.230469 157.675781 576.785156 154.597656 L 613.144531 122.964844 C 555.089844 80.339844 483.433594 55.199219 405.917969 55.199219 C 212.210938 55.199219 55.199219 212.210938 55.199219 405.917969 C 55.199219 445.171875 61.648438 482.921875 73.523438 518.179688 C 75.320312 523.496094 73.558594 529.101562 69.050781 532.4375 L 43.945312 550.910156 C 40.609375 553.367188 36.6875 554.023438 32.765625 552.851562 C 28.808594 551.644531 25.914062 548.929688 24.519531 545.046875 C 8.648438 501.648438 0 454.808594 0 405.917969 C 0 181.71875 181.71875 0 405.917969 0 Z M 405.917969 0 "/><path style=" stroke:none;fill-rule:evenodd;fill:#232121;fill-opacity:1;" d="M 405.917969 135.355469 C 555.308594 135.355469 676.441406 256.488281 676.441406 405.917969 C 676.441406 555.308594 555.308594 676.441406 405.917969 676.441406 C 256.488281 676.441406 135.355469 555.308594 135.355469 405.917969 C 135.355469 256.488281 256.488281 135.355469 405.917969 135.355469 Z M 432.890625 372.964844 C 440.808594 377.949219 447.515625 384.660156 452.5 392.574219 L 559.742188 392.574219 C 578.140625 392.574219 593.058594 407.492188 593.058594 425.890625 C 593.058594 444.253906 578.140625 459.171875 559.742188 459.171875 L 452.5 459.171875 C 441.46875 476.726562 421.894531 488.417969 399.613281 488.417969 C 365.085938 488.417969 337.085938 460.417969 337.085938 425.890625 C 337.085938 403.605469 348.738281 384.035156 366.296875 372.964844 L 366.296875 260.191406 C 366.296875 241.789062 381.214844 226.875 399.613281 226.875 C 417.976562 226.875 432.890625 241.789062 432.890625 260.191406 Z M 399.613281 402.765625 C 412.367188 402.765625 422.703125 413.136719 422.703125 425.890625 C 422.703125 438.644531 412.367188 448.980469 399.613281 448.980469 C 386.859375 448.980469 376.484375 438.644531 376.484375 425.890625 C 376.484375 413.136719 386.859375 402.765625 399.613281 402.765625 Z M 399.613281 402.765625 "/></g></svg>