<svg xmlns="http://www.w3.org/2000/svg" xmlns:xlink="http://www.w3.org/1999/xlink" width="1080" zoomAndPan="magnify" viewBox="0 0 810 809.999993" height="1080" preserveAspectRatio="xMidYMid meet" version="1.2"><g id="5878b35b8f"><path style=" stroke:none;fill-rule:nonzero;fill:#ffffff;fill-opacity:1;" d="M 405 810 C 628.398438 810 810 628.398438 810 405 C 810 181.601562 628.398438 0 405 0 C 181.601562 0 0 181.601562 0 405 C 0 628.398438 181.601562 810 405 810 Z M 190.996094 389.125 C 205.171875 376.972656 226.476562 378.675781 238.625 392.527344 L 329.425781 498.472656 L 572.425781 237.898438 C 585.226562 224.371094 606.527344 223.722656 619.972656 236.195312 C 633.824219 248.992188 634.472656 270.296875 621.675781 284.148438 L 352.996094 572.101562 C 346.597656 578.824219 337.445312 582.875 328.050781 582.875 C 328.050781 582.875 327.726562 582.875 327.402344 582.875 C 317.925781 582.550781 308.851562 578.179688 302.777344 571.050781 L 187.273438 436.753906 C 175.203125 422.578125 176.824219 400.949219 190.996094 389.125 Z M 190.996094 389.125 "/></g></svg>