<svg width="18" height="16" viewBox="0 0 18 16" fill="none" xmlns="http://www.w3.org/2000/svg">
<path d="M6.36189 5.158C6.36189 5.158 3.20189 5.508 1.09389 5.742C0.90389 5.765 0.73589 5.892 0.67289 6.085C0.60989 6.278 0.67289 6.479 0.81289 6.606C2.37889 8.035 4.73189 10.175 4.73189 10.175C4.72989 10.175 4.08589 13.288 3.65789 15.365C3.62189 15.553 3.68989 15.752 3.85389 15.871C4.01689 15.99 4.22689 15.992 4.39189 15.899C6.23589 14.851 8.99789 13.275 8.99789 13.275C8.99789 13.275 11.7609 14.851 13.6019 15.9C13.7699 15.992 13.9799 15.99 14.1429 15.871C14.3069 15.752 14.3749 15.553 14.3379 15.366C13.9099 13.288 13.2669 10.175 13.2669 10.175C13.2669 10.175 15.6199 8.035 17.1859 6.609C17.3259 6.478 17.3879 6.277 17.3259 6.085C17.2639 5.893 17.0959 5.766 16.9059 5.744C14.7979 5.508 11.6369 5.158 11.6369 5.158C11.6369 5.158 10.3269 2.26 9.45389 0.327997C9.37189 0.154997 9.19989 0.0339966 8.99789 0.0339966C8.79589 0.0339966 8.62289 0.155997 8.54489 0.327997C7.67089 2.26 6.36189 5.158 6.36189 5.158Z" fill="#FDD663"/>
</svg>
