<svg width="77" height="76" viewBox="0 0 77 76" fill="none" xmlns="http://www.w3.org/2000/svg">
<path d="M65.2509 38.5336L38.3428 15.0156L11.4185 38.5435V72.1626C11.4185 73.0309 12.1296 73.7276 13.0093 73.7276H29.8356V58.9869C29.8356 58.1186 30.5415 57.4171 31.4212 57.4171H45.2471C46.1268 57.4171 46.8327 58.1186 46.8327 58.9869V73.7276H63.6638C64.5439 73.7276 64.7537 73.8467 65.2494 72.1626V38.5322L65.2509 38.5336Z" fill="#232121"/>
<mask id="mask0_106_34" style="mask-type:luminance" maskUnits="userSpaceOnUse" x="0" y="2" width="77" height="39">
<path d="M0 2.1419H76.7148V40.0642H0V2.1419Z" fill="white"/>
</mask>
<g mask="url(#mask0_106_34)">
<path d="M38.1859 2.14498L0 35.513L4.0223 39.9914L38.3426 9.99934L72.6546 39.9914L76.6691 35.513L38.4915 2.14498L38.3433 2.31431L38.187 2.14498H38.1859Z" fill="#232121"/>
</g>
<path d="M15.4766 43.8217H15.6816L15.793 44.4595C15.8703 44.5702 16.0039 44.6676 16.1941 44.7527C16.3849 44.837 16.5732 44.8788 16.7585 44.8788C17.0526 44.8788 17.2817 44.7948 17.4462 44.6266C17.6114 44.4587 17.6943 44.2264 17.6943 43.9302C17.6943 43.7613 17.662 43.6216 17.5977 43.5109C17.5342 43.4006 17.4507 43.3071 17.3467 43.2309C17.2427 43.1547 17.1243 43.0902 16.9917 43.0374C16.8588 42.9846 16.7221 42.9315 16.5817 42.8776C16.4421 42.823 16.3058 42.7629 16.1733 42.6973C16.0414 42.6309 15.9237 42.5474 15.8198 42.4466C15.7158 42.3462 15.6315 42.2208 15.5673 42.0713C15.5026 41.9217 15.4707 41.7381 15.4707 41.52C15.4707 41.144 15.597 40.8486 15.8495 40.6345C16.102 40.4205 16.4518 40.3135 16.8996 40.3135C17.2401 40.3135 17.6103 40.3644 18.0106 40.4659V41.4482H17.8057L17.6943 40.8706C17.4804 40.6968 17.2152 40.6096 16.8996 40.6096C16.6181 40.6096 16.3979 40.6738 16.2386 40.8017C16.0801 40.93 16.001 41.1066 16.001 41.3324C16.001 41.4848 16.0325 41.612 16.096 41.7136C16.1603 41.8143 16.2446 41.9008 16.3485 41.973C16.4533 42.0445 16.5721 42.1061 16.705 42.1578C16.8387 42.2098 16.9754 42.2633 17.115 42.319C17.2553 42.374 17.3927 42.4359 17.5264 42.5052C17.6601 42.5749 17.7789 42.6628 17.8829 42.7691C17.9869 42.8758 18.0708 43.0062 18.1354 43.1605C18.1996 43.3141 18.2319 43.5036 18.2319 43.7294C18.2319 44.186 18.1064 44.5394 17.8562 44.7893C17.6055 45.0397 17.2446 45.1646 16.7733 45.1646C16.5465 45.1646 16.3181 45.1419 16.0886 45.0972C15.8599 45.0532 15.6556 44.9924 15.4766 44.9139V43.8217Z" fill="#232121"/>
<path d="M19.8271 40.6976C19.8271 40.8013 19.7933 40.8907 19.7261 40.9659C19.6585 41.0414 19.5776 41.0788 19.4825 41.0788C19.3904 41.0788 19.3106 41.0414 19.2434 40.9659C19.1758 40.8907 19.1424 40.8013 19.1424 40.6976C19.1424 40.592 19.1758 40.5019 19.2434 40.4264C19.3106 40.3512 19.3904 40.3135 19.4825 40.3135C19.5776 40.3135 19.6585 40.3512 19.7261 40.4264C19.7933 40.5019 19.8271 40.592 19.8271 40.6976ZM19.7959 44.848L20.3039 44.9359V45.0943H18.7666V44.9359L19.2716 44.848V42.0273L18.8528 41.9393V41.781H19.7959V44.848Z" fill="#232121"/>
<path d="M21.4542 42.0478C21.6124 41.9473 21.7799 41.8627 21.9563 41.7941C22.1334 41.726 22.2893 41.6915 22.4241 41.6915C22.5686 41.6915 22.7023 41.7223 22.8252 41.7839C22.9488 41.8447 23.0409 41.9422 23.1015 42.0771C23.2637 41.9756 23.4535 41.8861 23.6703 41.8088C23.8879 41.7307 24.0688 41.6915 24.2125 41.6915C24.7175 41.6915 24.97 42.0177 24.97 42.6694V44.8479L25.3517 44.9359V45.0942H24.0045V44.9359L24.4457 44.8479V42.7324C24.4457 42.3278 24.2771 42.1255 23.9407 42.1255C23.8861 42.1255 23.8222 42.1306 23.7491 42.1401C23.6767 42.1489 23.6042 42.1592 23.5322 42.1709C23.4598 42.1826 23.3904 42.1966 23.3243 42.212C23.2578 42.2277 23.2025 42.2398 23.1579 42.2486C23.1943 42.3758 23.2129 42.5162 23.2129 42.6694V44.8479L23.657 44.9359V45.0942H22.2504V44.9359L22.6885 44.8479V42.7324C22.6885 42.5371 22.6432 42.3872 22.5534 42.2823C22.4642 42.1779 22.3306 42.1255 22.1523 42.1255C21.967 42.1255 21.7368 42.1599 21.4616 42.2281V44.8479L21.9058 44.9359V45.0942H20.5615V44.9359L20.9373 44.8479V42.0272L20.5615 41.9393V41.7809H21.429L21.4542 42.0478Z" fill="#232121"/>
<path d="M25.9315 42.0272L25.5943 41.9393V41.7809H26.4261L26.4335 41.9745C26.5215 41.8894 26.6392 41.8213 26.787 41.7692C26.9355 41.7175 27.0863 41.6915 27.24 41.6915C27.6192 41.6915 27.9122 41.8389 28.1194 42.1328C28.3262 42.4271 28.4298 42.849 28.4298 43.398C28.4298 43.9602 28.3162 44.3949 28.0897 44.7028C27.8639 45.0106 27.5375 45.1646 27.1108 45.1646C26.8732 45.1646 26.6474 45.1386 26.4335 45.0869C26.4454 45.2558 26.4513 45.3889 26.4513 45.4856V46.3814L26.9697 46.465V46.6306H25.5557V46.465L25.9315 46.3814V42.0272ZM27.8624 43.398C27.8624 42.9476 27.7963 42.6122 27.6648 42.3923C27.533 42.1724 27.334 42.0624 27.0677 42.0624C26.8212 42.0624 26.6155 42.1013 26.4513 42.1782V44.8259C26.6385 44.8662 26.8438 44.886 27.0677 44.886C27.5973 44.886 27.8624 44.3901 27.8624 43.398Z" fill="#232121"/>
<path d="M29.8404 44.8479L30.3469 44.9359V45.0942H28.811V44.9359L29.3161 44.8479V40.3281L28.811 40.2431V40.0847H29.8404V44.8479Z" fill="#232121"/>
<path d="M31.1052 46.6527C30.9407 46.6527 30.7788 46.6314 30.6195 46.5896V45.8727H30.7666L30.872 46.2114C30.9363 46.266 31.0265 46.2935 31.1424 46.2935C31.2523 46.2935 31.3533 46.2576 31.4454 46.1865C31.5382 46.1161 31.6229 46.0113 31.6994 45.8727C31.7766 45.7349 31.8724 45.4871 31.9875 45.1294L30.8587 42.0273L30.5557 41.9393V41.781H31.9311V41.9393L31.4647 42.0346L32.2653 44.351L33.0421 42.0273L32.5787 41.9393V41.781H33.6823V41.9393L33.3734 42.0126L32.2148 45.3024C32.0781 45.6902 31.9593 45.9687 31.8583 46.1381C31.7573 46.307 31.6459 46.4349 31.5241 46.5222C31.4023 46.609 31.2627 46.6527 31.1052 46.6527Z" fill="#232121"/>
<path d="M36.2459 42.7251C36.2459 43.4845 36.3592 44.035 36.5861 44.3759C36.8137 44.716 37.1698 44.8861 37.654 44.8861C38.1353 44.8861 38.4903 44.716 38.719 44.3759C38.9485 44.035 39.0636 43.4845 39.0636 42.7251C39.0636 41.9708 38.9492 41.4273 38.7205 41.0949C38.4925 40.7617 38.1371 40.595 37.654 40.595C37.1676 40.595 36.8111 40.7617 36.5846 41.0949C36.3588 41.4273 36.2459 41.9708 36.2459 42.7251ZM35.5864 42.7251C35.5864 41.1176 36.2756 40.3135 37.654 40.3135C38.335 40.3135 38.8501 40.518 39.1988 40.9263C39.5482 41.3338 39.7231 41.9335 39.7231 42.7251C39.7231 43.5285 39.5463 44.1362 39.1928 44.5474C38.8393 44.959 38.3261 45.1646 37.654 45.1646C36.9826 45.1646 36.4702 44.9601 36.1167 44.5504C35.7632 44.1399 35.5864 43.5315 35.5864 42.7251Z" fill="#232121"/>
<path d="M42.0823 41.6915V42.5873H41.9471L41.7644 42.2002C41.6593 42.2002 41.5346 42.2164 41.3901 42.2486C41.2464 42.2801 41.1216 42.3215 41.0158 42.3732V44.8479L41.5238 44.9359V45.0942H40.1172V44.9359L40.493 44.8479V42.0272L40.1172 41.9393V41.7809H40.9817L41.0099 42.1929C41.1365 42.0756 41.3073 41.9627 41.5223 41.8542C41.7381 41.7458 41.9089 41.6915 42.0348 41.6915H42.0823Z" fill="#232121"/>
<path d="M44.7674 42.8277C44.7674 43.2082 44.6653 43.4959 44.4615 43.6912C44.2572 43.8858 43.9639 43.983 43.5807 43.983C43.4084 43.983 43.2483 43.9654 43.1009 43.9302L42.9033 44.392C42.9093 44.4323 42.9498 44.4697 43.0251 44.5049C43.1013 44.5401 43.1963 44.5577 43.3103 44.5577H44.1867C44.5064 44.5577 44.7437 44.6354 44.8982 44.7908C45.0526 44.9462 45.1299 45.1602 45.1299 45.4329C45.1299 45.6792 45.0682 45.894 44.9457 46.078C44.8228 46.2616 44.6427 46.4034 44.405 46.5031C44.1674 46.6028 43.8792 46.6526 43.5406 46.6526C43.1365 46.6526 42.8283 46.583 42.6167 46.4445C42.4058 46.3056 42.3003 46.108 42.3003 45.8522C42.3003 45.7279 42.3378 45.6052 42.4132 45.4842C42.4893 45.3629 42.6286 45.221 42.8306 45.059C42.7106 45.0143 42.6096 44.9381 42.5275 44.8303C42.4451 44.7219 42.4043 44.6057 42.4043 44.4814L42.9033 43.854C42.5706 43.6802 42.4043 43.3379 42.4043 42.8277C42.4043 42.4652 42.5068 42.1852 42.7117 41.9877C42.9167 41.7905 43.2145 41.6915 43.6059 41.6915C43.6839 41.6915 43.7841 41.7003 43.9059 41.7179C44.0277 41.7355 44.1213 41.7568 44.1867 41.781L44.8833 41.3895L44.9947 41.5405L44.5565 42.0478C44.6969 42.2248 44.7674 42.4847 44.7674 42.8277ZM44.6382 45.5414C44.6382 45.4072 44.6011 45.3028 44.5268 45.2276C44.4533 45.1521 44.3419 45.1148 44.1926 45.1148H43.0444C42.9561 45.1998 42.884 45.3072 42.8276 45.4373C42.7719 45.5681 42.7444 45.6898 42.7444 45.8023C42.7444 46.0047 42.8098 46.1498 42.9405 46.2378C43.0712 46.3264 43.271 46.3712 43.5406 46.3712C43.8911 46.3712 44.1614 46.2979 44.3515 46.1513C44.5424 46.0054 44.6382 45.8023 44.6382 45.5414ZM43.5881 43.7161C43.8168 43.7161 43.9787 43.6428 44.0738 43.4962C44.1696 43.3489 44.2179 43.1261 44.2179 42.8277C44.2179 42.5151 44.1681 42.2922 44.0693 42.1592C43.9713 42.0265 43.8127 41.9598 43.594 41.9598C43.3731 41.9598 43.2112 42.0269 43.1083 42.1607C43.0051 42.2948 42.9538 42.5169 42.9538 42.8277C42.9538 43.1378 43.0036 43.3636 43.1039 43.505C43.2049 43.6458 43.366 43.7161 43.5881 43.7161Z" fill="#232121"/>
<path d="M46.7202 41.7062C47.044 41.7062 47.2821 41.7806 47.4347 41.929C47.5869 42.0768 47.6634 42.3036 47.6634 42.6093V44.848L48.0318 44.9359V45.0942H47.2178L47.1584 44.7629C46.9185 45.0308 46.6126 45.1646 46.2405 45.1646C45.7332 45.1646 45.48 44.8359 45.48 44.178C45.48 43.9573 45.5179 43.7744 45.5944 43.6297C45.6716 43.4853 45.7941 43.3746 45.9627 43.2983C46.1309 43.2221 46.3749 43.1803 46.695 43.1723L47.1391 43.1591V42.6401C47.1391 42.4125 47.1012 42.245 47.0262 42.1372C46.952 42.0287 46.8368 41.9745 46.6816 41.9745C46.4714 41.9745 46.2791 42.0298 46.1038 42.1402L45.9969 42.5521H45.8201V41.8294C46.1606 41.7473 46.4607 41.7062 46.7202 41.7062ZM47.1391 43.4054L46.7262 43.42C46.444 43.4317 46.2527 43.493 46.1528 43.6033C46.0537 43.714 46.0043 43.898 46.0043 44.156C46.0043 44.5705 46.1543 44.7776 46.4544 44.7776C46.5977 44.7776 46.7217 44.7596 46.8257 44.7233C46.9297 44.6863 47.034 44.6394 47.1391 44.5826V43.4054Z" fill="#232121"/>
<path d="M49.1419 42.0478C49.3042 41.9444 49.4765 41.8594 49.6588 41.7927C49.8419 41.7252 49.9949 41.6915 50.1178 41.6915C50.374 41.6915 50.5671 41.7751 50.6971 41.9422C50.8278 42.1093 50.8931 42.352 50.8931 42.6694V44.8479L51.2526 44.9359V45.0942H49.9752V44.9359L50.3688 44.8479V42.7324C50.3688 42.5371 50.3261 42.3835 50.2411 42.2721C50.1557 42.1606 50.0242 42.1049 49.846 42.1049C49.6566 42.1049 49.4241 42.1387 49.1479 42.2061V44.8479L49.5489 44.9359V45.0942H48.2686V44.9359L48.625 44.8479V42.0272L48.2686 41.9393V41.7809H49.1137L49.1419 42.0478Z" fill="#232121"/>
<path d="M52.5459 40.6976C52.5459 40.8013 52.5121 40.8907 52.4449 40.9659C52.3773 41.0414 52.2963 41.0788 52.2013 41.0788C52.1092 41.0788 52.0294 41.0414 51.9621 40.9659C51.8946 40.8907 51.8611 40.8013 51.8611 40.6976C51.8611 40.592 51.8946 40.5019 51.9621 40.4264C52.0294 40.3512 52.1092 40.3135 52.2013 40.3135C52.2963 40.3135 52.3773 40.3512 52.4449 40.4264C52.5121 40.5019 52.5459 40.592 52.5459 40.6976ZM52.5147 44.848L53.0227 44.9359V45.0943H51.4854V44.9359L51.9904 44.848V42.0273L51.5715 41.9393V41.781H52.5147V44.848Z" fill="#232121"/>
<path d="M53.3188 45.0942V44.9359L54.9468 42.0625H54.2487C54.1306 42.0625 54.0173 42.0738 53.9085 42.0962C53.7994 42.1189 53.7236 42.1486 53.6813 42.1856L53.5832 42.6621H53.4347V41.781H55.6241V41.9525L53.9962 44.8128H54.8651C54.9847 44.8128 55.1105 44.7974 55.2424 44.7659C55.3749 44.7336 55.4689 44.694 55.5246 44.6471L55.685 43.9522H55.8335L55.7548 45.0942H53.3188Z" fill="#232121"/>
<path d="M56.8325 43.4273V43.4904C56.8325 43.8151 56.8645 44.0672 56.9291 44.2468C56.9933 44.4268 57.0925 44.5635 57.2262 44.6573C57.3598 44.7512 57.5344 44.7981 57.7505 44.7981C57.8641 44.7981 57.9989 44.7878 58.1545 44.7673C58.3097 44.746 58.4382 44.7218 58.5392 44.6954V44.8934C58.4382 44.9659 58.3008 45.0293 58.1278 45.084C57.9543 45.1375 57.7772 45.1646 57.596 45.1646C57.1355 45.1646 56.7984 45.0264 56.5845 44.7497C56.3713 44.4722 56.2651 44.0266 56.2651 43.4127C56.2651 42.8343 56.3728 42.4025 56.5889 42.1181C56.8058 41.8337 57.1151 41.6915 57.5173 41.6915C58.2767 41.6915 58.6565 42.1735 58.6565 43.137V43.4273H56.8325ZM57.5173 41.9745C57.2982 41.9745 57.1303 42.0734 57.0137 42.2706C56.8968 42.4682 56.8385 42.7595 56.8385 43.1444H58.107C58.107 42.7243 58.0583 42.4242 57.9614 42.2442C57.8652 42.0646 57.7171 41.9745 57.5173 41.9745Z" fill="#232121"/>
<path d="M61.1616 44.8479C60.9239 45.0591 60.6462 45.1646 60.3283 45.1646C59.518 45.1646 59.1133 44.5994 59.1133 43.4684C59.1133 42.8878 59.2277 42.4466 59.4564 42.1445C59.6859 41.8425 60.0242 41.6915 60.4709 41.6915C60.6974 41.6915 60.9276 41.719 61.1616 41.7736C61.1486 41.6956 61.1423 41.5002 61.1423 41.1872V40.3281L60.6432 40.2431V40.0847H61.6666V44.8479L62.032 44.9359V45.0942H61.1987L61.1616 44.8479ZM59.6822 43.4684C59.6822 43.9152 59.749 44.2483 59.8827 44.4682C60.0171 44.6881 60.2236 44.7981 60.5021 44.7981C60.7397 44.7981 60.9529 44.7523 61.1423 44.6603V42.0405C60.9551 42.0016 60.7416 41.9818 60.5021 41.9818C59.9555 41.9818 59.6822 42.4773 59.6822 43.4684Z" fill="#232121"/>
<path d="M65.5317 38.5336L38.5081 15.0156L11.4683 38.5435V72.1626C11.4683 73.0309 12.1823 73.7276 13.0657 73.7276H29.9648V58.9869C29.9648 58.1186 30.6737 57.4171 31.5571 57.4171H45.4428C46.3262 57.4171 47.0351 58.1186 47.0351 58.9869V73.7276H63.939C64.8228 73.7276 65.0337 73.8467 65.5317 72.1626V38.5322V38.5336Z" fill="#232121"/>
<mask id="mask1_106_34" style="mask-type:luminance" maskUnits="userSpaceOnUse" x="0" y="2" width="77" height="39">
<path d="M0 2.1419H77V40.0642H0V2.1419Z" fill="white"/>
</mask>
<g mask="url(#mask1_106_34)">
<path d="M38.3496 2.14498L0 35.513L4.03975 39.9914L38.5071 9.99934L72.9662 39.9914L76.9981 35.513L38.6552 2.14498L38.5063 2.31431L38.3492 2.14498H38.3496Z" fill="#003781"/>
</g>
</svg>
