<svg width="76" height="76" viewBox="0 0 76 76" fill="none" xmlns="http://www.w3.org/2000/svg">
<path d="M12.5297 41.023H12.6004C13.1784 41.0446 13.7227 41.307 14.0995 41.7406L20.2939 48.9096V27.7237H5.82617V46.863L11.0603 41.6303C11.451 41.2378 11.9737 41.023 12.5297 41.023Z" fill="#232121"/>
<path d="M39.3987 50.2247V40.3329H24.9307V54.2765L29.7115 59.8093L39.3987 50.2247Z" fill="#232121"/>
<mask id="mask0_108_162" style="mask-type:luminance" maskUnits="userSpaceOnUse" x="44" y="9" width="15" height="37">
<path d="M44.0049 9.91562H58.5481V45.6938H44.0049V9.91562Z" fill="white"/>
</mask>
<g mask="url(#mask0_108_162)">
<path d="M58.5047 9.92111H44.0366V45.6366L58.5047 31.324V9.92111Z" fill="#232121"/>
</g>
<mask id="mask1_108_162" style="mask-type:luminance" maskUnits="userSpaceOnUse" x="0" y="19" width="76" height="48">
<path d="M0 19.3284H76V66.0712H0V19.3284Z" fill="white"/>
</mask>
<g mask="url(#mask1_108_162)">
<path d="M75.6621 19.6989C75.4092 19.4101 75.0236 19.2771 74.6446 19.3464L65.0864 21.1166C64.4937 21.2269 64.1034 21.7961 64.2133 22.3884C64.3233 22.9811 64.891 23.3714 65.4837 23.2614L71.2823 22.1883L29.6549 63.3707L13.3531 44.503C13.156 44.2736 12.8704 44.1372 12.5684 44.1259C12.2646 44.116 11.971 44.2311 11.7559 44.4459L0 56.1984V59.283L12.4699 46.8161L28.7668 65.679C28.9655 65.907 29.2477 66.0433 29.5501 66.0547C29.8521 66.0646 30.1456 65.9528 30.3608 65.7413L72.5357 24.0154L70.8128 29.358C70.6273 29.9305 70.9425 30.5459 71.515 30.7313C71.6268 30.7672 71.7397 30.7837 71.8515 30.7837C72.3111 30.7837 72.7391 30.4898 72.8887 30.0273L75.8805 20.7534C75.9989 20.3876 75.9168 19.987 75.6624 19.6986L75.6621 19.6989Z" fill="#003781"/>
</g>
</svg>
