<svg width="77" height="77" viewBox="0 0 77 77" fill="none" xmlns="http://www.w3.org/2000/svg">
<mask id="mask0_121_136" style="mask-type:luminance" maskUnits="userSpaceOnUse" x="5" y="6" width="64" height="38">
<path d="M5.13281 6.49687H68.8242V43.8235H5.13281V6.49687Z" fill="white"/>
</mask>
<g mask="url(#mask0_121_136)">
<path d="M66.2672 6.49687H51.5007C50.1156 6.49687 48.9979 7.61496 48.9979 9.00041C48.9979 10.3859 50.1156 11.504 51.5007 11.504H60.2245L41.3677 30.3663L29.9789 18.9663C29.0394 18.0264 27.3788 18.0264 26.4393 18.9663L5.88145 39.5297C4.9015 40.51 4.9015 42.0901 5.88145 43.0704C6.36753 43.5565 7.00734 43.7997 7.64715 43.7997C8.28733 43.7997 8.92714 43.5565 9.41322 43.0704L28.1972 24.2812L39.602 35.673C40.0717 36.1431 40.7034 36.4023 41.3677 36.4023C42.032 36.4023 42.6637 36.135 43.1334 35.673L63.7562 15.0446V23.771C63.7562 25.1565 64.8739 26.2745 66.259 26.2745C67.6441 26.2745 68.7618 25.1565 68.7618 23.771V9.00041C68.7618 7.62313 67.6441 6.49687 66.2672 6.49687Z" fill="#003781"/>
</g>
<path d="M74.8856 34.3362H55.3809C54.2223 34.3362 53.291 35.2679 53.291 36.4265V39.4165C53.291 40.5668 54.2223 41.5067 55.3809 41.5067H74.8856C76.0356 41.5067 76.9755 40.575 76.9755 39.4165V36.4265C76.9755 35.2761 76.0356 34.3362 74.8856 34.3362Z" fill="black"/>
<path d="M74.8856 44.0102H55.3809C54.2223 44.0102 53.291 44.9501 53.291 46.1009V49.0905C53.291 50.2409 54.2223 51.1807 55.3809 51.1807H74.8856C76.0356 51.1807 76.9755 50.249 76.9755 49.0905V46.1009C76.9755 44.9423 76.0356 44.0102 74.8856 44.0102Z" fill="black"/>
<path d="M74.8856 53.6765H55.3809C54.2223 53.6765 53.291 54.6081 53.291 55.7667V58.7563C53.291 59.9071 54.2223 60.8469 55.3809 60.8469H74.8856C76.0356 60.8469 76.9755 59.9153 76.9755 58.7563V55.7667C76.9755 54.6163 76.0356 53.6765 74.8856 53.6765Z" fill="black"/>
<mask id="mask1_121_136" style="mask-type:luminance" maskUnits="userSpaceOnUse" x="53" y="63" width="24" height="8">
<path d="M53.2344 63.3111H76.9998V70.5209H53.2344V63.3111Z" fill="white"/>
</mask>
<g mask="url(#mask1_121_136)">
<path d="M74.8856 63.3505H55.3809C54.2223 63.3505 53.291 64.2822 53.291 65.4407V68.4307C53.291 69.5811 54.2223 70.521 55.3809 70.521H74.8856C76.0356 70.521 76.9755 69.5811 76.9755 68.4307V65.4407C76.9755 64.2822 76.0356 63.3505 74.8856 63.3505Z" fill="black"/>
</g>
<path d="M48.2528 44.0102H28.7481C27.5899 44.0102 26.6582 44.9501 26.6582 46.1009V49.0905C26.6582 50.2409 27.5899 51.1807 28.7481 51.1807H48.2528C49.4032 51.1807 50.3427 50.249 50.3427 49.0905V46.1009C50.3427 44.9423 49.411 44.0102 48.2528 44.0102Z" fill="black"/>
<path d="M48.2528 53.6765H28.7481C27.5899 53.6765 26.6582 54.6081 26.6582 55.7667V58.7563C26.6582 59.9071 27.5899 60.8469 28.7481 60.8469H48.2528C49.4032 60.8469 50.3427 59.9153 50.3427 58.7563V55.7667C50.3427 54.6163 49.411 53.6765 48.2528 53.6765Z" fill="black"/>
<mask id="mask2_121_136" style="mask-type:luminance" maskUnits="userSpaceOnUse" x="26" y="63" width="25" height="8">
<path d="M26.6172 63.3111H50.3826V70.5209H26.6172V63.3111Z" fill="white"/>
</mask>
<g mask="url(#mask2_121_136)">
<path d="M48.2528 63.3505H28.7481C27.5899 63.3505 26.6582 64.2822 26.6582 65.4407V68.4307C26.6582 69.5811 27.5899 70.521 28.7481 70.521H48.2528C49.4032 70.521 50.3427 69.5811 50.3427 68.4307V65.4407C50.3427 64.2822 49.411 63.3505 48.2528 63.3505Z" fill="black"/>
</g>
<path d="M21.62 53.6765H2.11526C0.965239 53.6765 0.0253906 54.6163 0.0253906 55.7667V58.7563C0.0253906 59.9071 0.965239 60.8469 2.11526 60.8469H21.62C22.7704 60.8469 23.7099 59.9153 23.7099 58.7563V55.7667C23.7099 54.6163 22.7786 53.6765 21.62 53.6765Z" fill="black"/>
<mask id="mask3_121_136" style="mask-type:luminance" maskUnits="userSpaceOnUse" x="0" y="63" width="24" height="8">
<path d="M0 63.3111H23.7654V70.5209H0V63.3111Z" fill="white"/>
</mask>
<g mask="url(#mask3_121_136)">
<path d="M21.62 63.3505H2.11526C0.965239 63.3505 0.0253906 64.2822 0.0253906 65.4407V68.4307C0.0253906 69.5811 0.965239 70.521 2.11526 70.521H21.62C22.7704 70.521 23.7099 69.5811 23.7099 68.4307V65.4407C23.7099 64.2822 22.7786 63.3505 21.62 63.3505Z" fill="black"/>
</g>
</svg>
