<svg width="76" height="76" viewBox="0 0 76 76" fill="none" xmlns="http://www.w3.org/2000/svg">
<mask id="mask0_108_150" style="mask-type:luminance" maskUnits="userSpaceOnUse" x="0" y="7" width="37" height="48">
<path d="M0.294434 7.6H36.5923V54.4198H0.294434V7.6Z" fill="white"/>
</mask>
<g mask="url(#mask0_108_150)">
<path d="M34.703 7.64874L27.0836 19.9203L17.1881 9.39481L18.2411 23.7984L4.04532 21.0961L13.3687 32.1303L0.294434 38.2833L14.3267 41.7337L7.36812 54.3915L17.8104 50.1371L21.263 37.503L21.2718 37.4719L21.2809 37.4396C21.4913 36.7319 21.8204 36.0179 22.2584 35.3179C22.6132 34.752 23.049 34.1787 23.5544 33.6158C24.2053 32.889 24.99 32.1563 25.8928 31.4325C25.8286 31.3148 25.7696 31.1957 25.7165 31.0733C25.4332 30.4249 25.3144 29.7329 25.3613 29.0175C25.4031 28.3878 25.5761 27.7571 25.8752 27.1439C26.1904 26.4974 26.6349 25.9362 27.1964 25.477C27.652 25.1043 28.1802 24.8052 28.7647 24.5878C29.5495 24.2968 30.4533 24.1488 31.4516 24.1488C32.1788 24.1488 32.9591 24.2246 33.7724 24.3756C33.9553 24.409 34.1364 24.4563 34.313 24.5156L36.574 22.4119L34.703 7.64874Z" fill="#003781"/>
</g>
<mask id="mask1_108_150" style="mask-type:luminance" maskUnits="userSpaceOnUse" x="20" y="23" width="56" height="46">
<path d="M20.8296 23.0815H76V68.5587H20.8296V23.0815Z" fill="white"/>
</mask>
<g mask="url(#mask1_108_150)">
<path d="M72.5022 48.2829C72.5176 48.2814 72.5322 48.2799 72.5469 48.2799C72.6964 48.2799 72.8354 48.3635 72.9043 48.4984C73.1821 49.0386 73.6849 50.3705 72.5759 51.3949C71.2627 52.6085 67.061 53.1175 66.4111 53.1897C66.369 53.1945 66.3272 53.2018 66.2858 53.2099C66.2656 53.2132 66.2389 53.2165 66.2062 53.2165C66.0373 53.2165 65.7129 53.1256 65.3882 52.5366C65.0499 51.9205 64.5698 50.4559 64.3308 49.6939C64.2527 49.4451 64.421 49.1874 64.6801 49.1581L72.5022 48.2829ZM69.2567 60.3602C69.2032 61.0467 68.6406 61.584 67.9516 61.6019C67.916 61.6027 67.8801 61.6034 67.8427 61.6034C67.3234 61.6034 66.6263 61.5107 65.7195 61.2182C65.3743 61.1068 65.0737 60.8894 64.8615 60.5959L63.1063 58.1681C62.8446 57.806 63.0388 57.2928 63.4768 57.1972C63.9302 57.0979 64.5357 57.0084 65.2387 57.0084C66.0087 57.0084 66.8953 57.1158 67.8292 57.4354C68.5893 57.6953 69.1347 58.3616 69.2329 59.1577C69.2747 59.4989 69.2923 59.9017 69.2567 60.3602ZM61.5431 53.4019C60.9563 53.7029 60.1119 53.9671 58.9541 53.9671C58.7323 53.9671 58.4989 53.9572 58.2529 53.9363C58.2529 53.9363 54.3246 53.6369 47.9715 52.0026C43.7207 50.9089 40.708 49.816 39.1804 49.2123C38.4261 48.914 38.0335 48.7351 38.0335 48.7351C36.6346 48.1132 35.8495 47.3314 35.41 46.6794C34.9809 46.042 35.0725 45.188 35.6259 44.6548L36.0657 44.2311C36.8028 43.5204 37.785 43.1253 38.7999 43.1249C38.9187 43.1249 39.0378 43.1301 39.1573 43.1414C41.6023 43.3657 45.3143 44.2905 47.6057 44.9077C48.2339 45.0774 48.8636 45.2441 49.4947 45.4061C50.219 45.5938 50.9454 45.7767 51.6726 45.9548C53.9739 46.517 57.7061 47.5055 59.9715 48.4954C61.0197 48.954 61.8143 49.849 62.1523 50.9412L62.3326 51.5243C62.5594 52.2584 62.2278 53.0505 61.5431 53.4019ZM61.3595 60.2165C61.3137 60.2165 61.2635 60.2106 61.2096 60.1967L46.8144 56.4942L39.5773 54.6323L32.4204 52.7913C32.1334 52.7173 32.0304 52.5 32.2529 52.4384L33.7417 52.0319C34.2658 51.9132 34.7954 51.8681 35.2968 51.8681C36.3883 51.8681 37.3438 52.0814 37.8059 52.2057C38.3465 52.3504 38.8886 52.4926 39.4311 52.6334C39.644 52.6887 39.8569 52.7433 40.0706 52.7979L47.2887 54.6551L54.5061 56.5122C55.2618 56.7061 56.0183 56.8985 56.7762 57.0854C57.4539 57.2522 59.1425 57.7583 60.419 58.8941L61.5266 59.9684C61.6608 60.0992 61.5574 60.2165 61.3595 60.2165ZM31.7387 50.0997L29.0294 51.3781C28.8011 51.4862 28.5526 51.5408 28.3023 51.5408C28.1941 51.5408 28.0853 51.5309 27.9779 51.5096C26.9755 51.3154 26.2945 51.0365 25.8371 50.7689C25.2423 50.4207 25.0088 49.6786 25.2943 49.0514C25.4849 48.6329 25.6945 48.288 25.8961 48.0106C26.2934 47.4608 26.9268 47.147 27.5905 47.147C27.7122 47.147 27.835 47.1577 27.957 47.1789C29.8185 47.5059 31.1519 48.4309 31.8835 49.0709C32.2207 49.3652 32.1433 49.9087 31.7387 50.0997ZM27.8302 36.9034C27.8976 36.8579 27.9757 36.8352 28.053 36.8352C28.1355 36.8352 28.2161 36.8598 28.2861 36.9093L34.7137 41.45C34.9262 41.6006 34.949 41.9078 34.7606 42.0873C34.183 42.6397 33.0552 43.6905 32.4611 44.0661C32.1342 44.274 31.8864 44.3359 31.7068 44.3359C31.5144 44.3359 31.4004 44.2644 31.3502 44.223C31.3176 44.1959 31.2846 44.1699 31.2501 44.1449C30.7158 43.7682 27.2819 41.2957 26.7186 39.5991C26.2425 38.1671 27.3255 37.2428 27.8302 36.9034ZM35.332 30.3828C35.7733 29.6809 37.0861 27.9106 40.4756 25.0647C41.0294 24.5996 41.7262 24.35 42.4379 24.35C42.6245 24.35 42.8125 24.3668 42.9991 24.402C43.6166 24.5175 44.4105 24.6692 45.3238 24.8499C47.8454 25.3498 51.28 26.0744 54.4401 26.887C58.7444 27.9942 63.416 29.4914 65.6594 30.2314C66.5273 30.5169 67.2204 31.177 67.5495 32.0288C69.1435 36.1564 69.4371 38.3398 69.4843 39.1681C69.4946 39.3396 69.3564 39.4748 69.1948 39.4748C69.1695 39.4748 69.1435 39.4723 69.1171 39.465L52.3803 34.8843L52.2546 34.8542L35.5105 30.82C35.3173 30.7731 35.2261 30.551 35.332 30.3828ZM72.7019 37.8189C72.6393 37.7981 72.5759 37.7882 72.5143 37.7882C72.2079 37.7882 71.9363 38.0282 71.9202 38.3552L71.8139 40.5205C71.8139 40.522 71.8139 40.5231 71.8139 40.5253C71.8088 40.6125 71.7384 40.6598 71.6676 40.6598C71.6083 40.6598 71.5489 40.6261 71.5284 40.5546L71.314 39.8238C69.646 33.9401 68.8114 31.7913 67.9582 30.5712C67.5715 30.0177 67.0529 29.5695 66.4514 29.2638C61.9914 26.9973 54.8587 25.2608 54.8587 25.2608C54.8587 25.2608 50.4147 24.056 46.0814 23.4722C44.9438 23.3179 43.8134 23.2079 42.7733 23.1731C42.7271 23.1709 42.6809 23.1705 42.6351 23.1705C42.0069 23.1705 41.3864 23.3131 40.8216 23.5909C39.4849 24.2474 37.7165 25.7266 33.4133 30.0745L32.8723 30.6118C32.8423 30.6419 32.8063 30.6551 32.7715 30.6551C32.6748 30.6551 32.5853 30.555 32.6366 30.4476C32.6374 30.4462 32.6381 30.4447 32.6388 30.4436L33.5921 28.496C33.7651 28.1423 33.5533 27.7204 33.1663 27.649C32.7048 27.5636 32.0847 27.4782 31.4517 27.4782C30.3929 27.4782 29.301 27.7179 28.8696 28.6019C28.2447 29.8832 29.3204 30.4597 30.1202 30.7031C30.6853 30.8754 31.2018 31.177 31.6353 31.5787C31.6353 31.5787 25.5226 34.8627 24.474 38.3885L21.1469 50.4468C21.0087 50.947 21.0842 51.4796 21.3499 51.9154L21.2011 52.4945L20.986 53.3279C20.7169 54.3714 21.0079 55.4343 21.6695 56.1959C22.0756 56.6628 22.6217 57.0165 23.2635 57.1814L25.9199 57.8646L28.8898 58.6284C29.0675 58.6746 29.2457 58.6959 29.422 58.6959C30.3782 58.6959 31.2553 58.0508 31.5045 57.0854L31.7299 56.2083L36.1552 57.3467L39.8448 58.2956L45.9465 59.8658L60.1632 63.5225L59.9374 64.3992C59.6431 65.5419 60.3377 66.7184 61.4812 67.012L67.1075 68.4594C67.3699 68.5268 67.6331 68.5587 67.8922 68.5587C69.3022 68.5587 70.5967 67.6072 70.9639 66.1833L71.3272 64.7708C71.7714 64.5172 72.0935 64.0876 72.2145 63.5829L75.1257 51.4177C75.733 48.6377 73.6168 44.5221 72.6272 42.8013C72.3373 42.2974 72.1445 41.9987 72.1445 41.9987C72.4582 41.9206 72.78 41.881 73.1011 41.881C73.3668 41.881 73.6325 41.9078 73.8946 41.9631C74.1101 42.0085 74.3538 42.0434 74.5968 42.0434C75.276 42.0434 75.9514 41.7743 76.0042 40.7269C76.083 39.1578 73.8924 38.2144 72.7019 37.8189Z" fill="#232121"/>
</g>
</svg>
