<svg width="77" height="77" viewBox="0 0 77 77" fill="none" xmlns="http://www.w3.org/2000/svg">
<path d="M47.6152 72.8169C47.6152 74.8184 49.1459 76.3487 51.1474 76.4664C53.0315 76.4664 54.6799 74.9361 54.6799 73.0523L55.1507 58.5721C52.7957 58.3367 50.4411 57.7481 48.0861 56.9241L47.6152 72.8169Z" fill="#003781"/>
<path d="M59.625 58.6899L59.9781 72.9346C59.9781 74.8184 61.6269 76.3487 63.5106 76.3487H63.6284C65.6299 76.3487 67.1605 74.7007 67.0428 72.6992L66.5719 57.2773C64.3346 58.1013 61.98 58.5721 59.625 58.6899Z" fill="#003781"/>
<path d="M63.8639 7.00857C63.8639 7.1144 63.8613 7.22024 63.8561 7.32607C63.8509 7.4319 63.8431 7.53773 63.8327 7.64319C63.8223 7.74864 63.8093 7.85373 63.7937 7.95845C63.7781 8.06354 63.7603 8.16788 63.7395 8.27186C63.7187 8.37546 63.6957 8.47906 63.6697 8.58192C63.6441 8.68441 63.6158 8.78653 63.585 8.8879C63.5542 8.98965 63.5212 9.08991 63.4855 9.1898C63.4495 9.28968 63.4116 9.38846 63.3711 9.48649C63.3303 9.58415 63.2876 9.68107 63.2423 9.77688C63.197 9.87268 63.1491 9.96737 63.0993 10.0606C63.0492 10.1542 62.9972 10.2462 62.9426 10.3372C62.888 10.4282 62.8316 10.5177 62.7725 10.6057C62.7135 10.6937 62.6526 10.7806 62.5895 10.8656C62.5264 10.9507 62.4614 11.0342 62.3938 11.1163C62.3266 11.198 62.2575 11.2782 62.1862 11.3569C62.1153 11.4353 62.0421 11.5121 61.9671 11.5868C61.8921 11.6618 61.8156 11.7349 61.7369 11.8062C61.6585 11.8771 61.5783 11.9466 61.4963 12.0138C61.4142 12.081 61.3307 12.146 61.2456 12.2091C61.1606 12.2722 61.0741 12.3331 60.9857 12.3922C60.8977 12.4509 60.8082 12.5077 60.7172 12.5623C60.6262 12.6168 60.5341 12.6688 60.4406 12.719C60.3474 12.7687 60.2527 12.8163 60.1569 12.8616C60.0611 12.9069 59.9641 12.9499 59.8661 12.9904C59.7684 13.0309 59.6693 13.0691 59.5698 13.1048C59.4699 13.1404 59.3693 13.1738 59.2679 13.2047C59.1665 13.2355 59.0644 13.2637 58.9615 13.2893C58.8587 13.315 58.7554 13.3383 58.6515 13.3591C58.5475 13.3796 58.4432 13.3978 58.3381 13.4134C58.2333 13.429 58.1283 13.442 58.0228 13.4523C57.9173 13.4627 57.8115 13.4705 57.7057 13.4757C57.5999 13.4809 57.494 13.4835 57.3882 13.4835C57.282 13.4835 57.1762 13.4809 57.0703 13.4757C56.9645 13.4705 56.8587 13.4627 56.7532 13.4523C56.6477 13.442 56.5427 13.429 56.4379 13.4134C56.3329 13.3978 56.2285 13.3796 56.1245 13.3591C56.0206 13.3383 55.9173 13.315 55.8145 13.2893C55.7116 13.2637 55.6095 13.2355 55.5081 13.2047C55.4067 13.1738 55.3061 13.1404 55.2062 13.1048C55.1067 13.0691 55.0076 13.0309 54.9099 12.9904C54.8119 12.9499 54.715 12.9069 54.6191 12.8616C54.5233 12.8163 54.4287 12.7687 54.3354 12.719C54.2419 12.6688 54.1498 12.6168 54.0588 12.5623C53.9678 12.5077 53.8783 12.4509 53.7903 12.3922C53.7019 12.3331 53.6154 12.2722 53.5304 12.2091C53.4454 12.146 53.3618 12.081 53.2797 12.0138C53.1977 11.9466 53.1175 11.8771 53.0391 11.8062C52.9604 11.7349 52.8839 11.6618 52.8089 11.5868C52.7339 11.5121 52.6607 11.4353 52.5898 11.3569C52.5185 11.2782 52.4494 11.198 52.3822 11.1163C52.315 11.0342 52.2497 10.9507 52.1865 10.8656C52.1234 10.7806 52.0625 10.6937 52.0035 10.6057C51.9448 10.5177 51.888 10.4282 51.8334 10.3372C51.7788 10.2462 51.7268 10.1542 51.6767 10.0606C51.6269 9.96737 51.579 9.87268 51.5337 9.77688C51.4884 9.68107 51.4457 9.58415 51.4052 9.48649C51.3644 9.38846 51.3265 9.28968 51.2909 9.1898C51.2549 9.08991 51.2218 8.98965 51.191 8.8879C51.1602 8.78653 51.1319 8.68441 51.1063 8.58192C51.0803 8.47906 51.0573 8.37546 51.0365 8.27186C51.0157 8.16788 50.9979 8.06354 50.9823 7.95845C50.9667 7.85373 50.9537 7.74864 50.9433 7.64319C50.9329 7.53773 50.9251 7.4319 50.9199 7.32607C50.9147 7.22024 50.9121 7.1144 50.9121 7.00857C50.9121 6.90237 50.9147 6.79654 50.9199 6.69071C50.9251 6.58488 50.9329 6.47942 50.9433 6.37396C50.9537 6.2685 50.9667 6.16342 50.9823 6.05833C50.9979 5.95361 51.0157 5.84927 51.0365 5.74529C51.0573 5.64132 51.0803 5.53809 51.1063 5.43523C51.1319 5.33237 51.1602 5.23025 51.191 5.12888C51.2218 5.0275 51.2549 4.92687 51.2909 4.82735C51.3265 4.72746 51.3644 4.62869 51.4052 4.53066C51.4457 4.43262 51.4884 4.33608 51.5337 4.24027C51.579 4.14447 51.6269 4.04978 51.6767 3.9562C51.7268 3.86262 51.7788 3.77053 51.8334 3.67956C51.888 3.58895 51.9448 3.49946 52.0035 3.41108C52.0625 3.32308 52.1234 3.23655 52.1865 3.15152C52.2497 3.06611 52.315 2.98293 52.3822 2.90087C52.4494 2.8188 52.5185 2.73859 52.5898 2.66024C52.6607 2.58189 52.7339 2.50502 52.8089 2.43001C52.8839 2.35501 52.9604 2.28222 53.0391 2.21093C53.1175 2.13963 53.1977 2.07056 53.2797 2.00335C53.3618 1.93614 53.4454 1.87078 53.5304 1.80766C53.6154 1.74453 53.7019 1.68363 53.7903 1.62496C53.8783 1.56592 53.9678 1.5091 54.0588 1.45489C54.1498 1.4003 54.2419 1.34794 54.3354 1.29819C54.4287 1.24806 54.5233 1.20052 54.6191 1.15522C54.715 1.10992 54.8119 1.06722 54.9099 1.02637C55.0076 0.985893 55.1067 0.947646 55.2062 0.911998C55.3061 0.87635 55.4067 0.843301 55.5081 0.81248C55.6095 0.781659 55.7116 0.753438 55.8145 0.727816C55.9173 0.701822 56.0206 0.678799 56.1245 0.658005C56.2285 0.63721 56.3329 0.619386 56.4379 0.60379C56.5427 0.588194 56.6477 0.575197 56.7532 0.5648C56.8587 0.554402 56.9645 0.546604 57.0703 0.541406C57.1762 0.536207 57.282 0.533607 57.3882 0.533607C57.494 0.533607 57.5999 0.536207 57.7057 0.541406C57.8115 0.546604 57.9173 0.554402 58.0228 0.5648C58.1283 0.575197 58.2333 0.588194 58.3381 0.60379C58.4432 0.619386 58.5475 0.63721 58.6515 0.658005C58.7554 0.678799 58.8587 0.701822 58.9615 0.727816C59.0644 0.753438 59.1665 0.781659 59.2679 0.81248C59.3693 0.843301 59.4699 0.87635 59.5698 0.911998C59.6693 0.947646 59.7684 0.985893 59.8661 1.02637C59.9641 1.06722 60.0611 1.10992 60.1569 1.15522C60.2527 1.20052 60.3474 1.24806 60.4406 1.29819C60.5341 1.34794 60.6262 1.4003 60.7172 1.45489C60.8082 1.5091 60.8977 1.56592 60.9857 1.62496C61.0741 1.68363 61.1606 1.74453 61.2456 1.80766C61.3307 1.87078 61.4142 1.93614 61.4963 2.00335C61.5783 2.07056 61.6585 2.13963 61.7369 2.21093C61.8156 2.28222 61.8921 2.35501 61.9671 2.43001C62.0421 2.50502 62.1153 2.58189 62.1862 2.66024C62.2575 2.73859 62.3266 2.8188 62.3938 2.90087C62.4614 2.98293 62.5264 3.06648 62.5895 3.15152C62.6526 3.23655 62.7135 3.32308 62.7725 3.41108C62.8316 3.49946 62.888 3.58895 62.9426 3.67956C62.9972 3.77053 63.0492 3.86262 63.0993 3.9562C63.1491 4.04978 63.197 4.14447 63.2423 4.24027C63.2876 4.33608 63.3303 4.43262 63.3711 4.53066C63.4116 4.62869 63.4495 4.72746 63.4855 4.82735C63.5212 4.92687 63.5542 5.0275 63.585 5.12888C63.6158 5.23025 63.6441 5.33237 63.6697 5.43523C63.6957 5.53809 63.7187 5.64132 63.7395 5.74529C63.7603 5.84927 63.7781 5.95361 63.7937 6.05833C63.8093 6.16342 63.8223 6.2685 63.8327 6.37396C63.8431 6.47942 63.8509 6.58488 63.8561 6.69071C63.8613 6.79654 63.8639 6.90237 63.8639 7.00857Z" fill="#003781"/>
<path d="M73.873 30.318C72.5778 28.1992 65.9843 17.7216 66.4552 18.4279C66.102 17.8393 65.3954 17.4862 64.8068 17.3684C63.747 16.8976 62.805 16.5441 61.8633 16.3087L62.5695 17.2507L61.6275 20.0758L62.4518 21.4888L58.5662 29.0232L60.0968 15.8378C58.213 15.4847 56.447 15.367 54.5632 15.7201L56.0938 29.0232L52.3259 21.3711L53.1503 19.9581L52.7967 18.8987C52.7967 18.781 52.7967 18.781 52.679 18.6633L52.2082 17.133L53.1503 16.0732C52.0905 16.3087 50.913 16.7795 49.0292 17.8393C48.3225 18.3102 48.676 18.1924 44.0837 27.1394L39.1387 31.2597L40.6693 35.4981C41.1402 35.4981 41.6114 35.2627 42.0822 34.9096L47.3808 30.4357C47.6162 30.2003 47.8517 29.8472 47.9694 29.7294L49.0292 27.7283V33.6143L44.0837 53.981C45.379 54.6872 46.7919 55.2758 48.2048 55.7467C50.5598 56.571 52.9145 57.1596 55.2695 57.395C56.6824 57.5127 58.213 57.6304 59.626 57.5127C61.981 57.395 64.4533 56.9242 66.6906 55.9821C68.1035 55.3935 69.3988 54.6872 70.694 53.8632L68.9279 46.682C67.1615 46.2111 65.9843 44.4451 66.3375 42.6794L67.0437 38.9122L65.7485 33.6143V26.08C65.8662 26.1977 69.5165 32.0841 69.5165 31.9664C69.5165 32.0841 67.515 43.0325 67.515 42.9148C67.2792 44.0919 68.1035 45.3868 69.3988 45.6222C70.8117 45.858 71.8715 44.9159 72.1069 43.7388L74.2261 31.8487C74.3438 31.3778 74.2261 30.7889 73.873 30.318Z" fill="#003781"/>
<path d="M36.9015 28.5523C36.7838 28.0815 36.3129 27.9637 35.8421 28.0815L22.0659 33.2612C21.7128 33.3789 21.4774 33.8498 21.5951 34.3206L21.8305 34.9096C23.4789 35.0273 25.3626 34.6738 27.3645 34.0852C29.2483 33.4966 31.2498 34.6738 31.721 36.5575C32.3096 38.441 31.1321 40.3247 29.2483 40.9133C27.4822 41.3842 25.8339 41.7373 24.3032 41.855L25.2449 44.4451C25.3626 44.9159 25.8339 45.0336 26.3047 44.9159L40.0809 39.7362C40.434 39.6185 40.6694 39.1476 40.5517 38.6768C40.6694 38.6768 36.9015 28.4346 36.9015 28.5523Z" fill="#232121"/>
<path d="M6.05198 23.3722C6.05198 21.3711 7.58263 19.8404 9.58449 19.8404C11.4683 19.8404 13.1166 21.3711 13.1166 23.3722C13.1166 23.7253 13.2343 29.7294 16.7665 32.9081L17.0023 23.7253C17.12 19.8404 14.0587 16.5441 10.1731 16.4264C6.28741 16.3087 2.9907 19.3696 2.87298 23.2545L2.16633 46.2111C2.04862 49.6252 4.40363 52.4503 7.58263 53.2747C7.70034 59.6316 7.58263 66.6951 6.64055 70.2269C6.05198 72.4638 7.70034 74.7007 10.0553 74.7007C11.586 74.7007 12.9989 73.6409 13.4698 72.1106C14.8827 67.1659 14.8827 57.9836 14.6473 50.92C15.7071 49.7429 16.2956 48.2123 16.4133 46.5643L16.5311 40.9133C9.34869 38.2055 6.05198 30.0826 6.05198 23.3722Z" fill="#232121"/>
<path d="M17.2385 8.42113C17.2385 8.5329 17.2355 8.64467 17.2303 8.75608C17.2248 8.86785 17.2166 8.97925 17.2055 9.09065C17.1947 9.20168 17.181 9.31271 17.1646 9.42299C17.1483 9.53365 17.129 9.64357 17.1071 9.75311C17.0855 9.86302 17.061 9.97183 17.0339 10.0803C17.0068 10.1887 16.9767 10.2964 16.9444 10.4033C16.9121 10.5103 16.8768 10.6165 16.8393 10.7216C16.8015 10.8266 16.7614 10.931 16.7186 11.0342C16.6759 11.1374 16.6306 11.2396 16.5827 11.3406C16.5348 11.4416 16.4847 11.5415 16.432 11.6399C16.3792 11.7386 16.3243 11.8356 16.2667 11.9314C16.2095 12.0275 16.1498 12.1219 16.0874 12.2147C16.0254 12.3075 15.9611 12.3989 15.8947 12.4887C15.8278 12.5786 15.7591 12.6666 15.6882 12.7528C15.6173 12.8393 15.5445 12.9239 15.4695 13.0067C15.3945 13.0896 15.3172 13.1705 15.2381 13.2492C15.159 13.3283 15.0785 13.4056 14.9957 13.4806C14.9128 13.5556 14.8282 13.6284 14.7417 13.6993C14.6551 13.7702 14.5671 13.8389 14.4773 13.9054C14.3878 13.9722 14.2964 14.0365 14.2032 14.0985C14.1104 14.1605 14.0161 14.2203 13.9203 14.2778C13.8245 14.3354 13.7272 14.3903 13.6284 14.4431C13.53 14.4958 13.4301 14.5459 13.3291 14.5938C13.2281 14.6414 13.126 14.6867 13.0228 14.7294C12.9195 14.7724 12.8152 14.8125 12.7101 14.8501C12.6046 14.8879 12.4988 14.9228 12.3919 14.9551C12.2849 14.9878 12.1772 15.0175 12.0688 15.0446C11.9604 15.0717 11.8512 15.0962 11.7416 15.1182C11.6321 15.1397 11.5218 15.159 11.4115 15.1753C11.3009 15.1917 11.1898 15.2054 11.0788 15.2166C10.9674 15.2273 10.856 15.2355 10.7442 15.2411C10.6328 15.2466 10.5211 15.2492 10.4093 15.2492C10.2975 15.2492 10.1858 15.2466 10.0744 15.2411C9.96258 15.2355 9.85118 15.2273 9.73978 15.2166C9.62875 15.2054 9.51772 15.1917 9.40744 15.1753C9.29678 15.159 9.18649 15.1397 9.07695 15.1182C8.9674 15.0962 8.85823 15.0717 8.7498 15.0446C8.64174 15.0175 8.53406 14.9878 8.42711 14.9551C8.32017 14.9228 8.21397 14.8879 8.10851 14.8501C8.00342 14.8125 7.89907 14.7724 7.79584 14.7294C7.69261 14.6867 7.5905 14.6414 7.48949 14.5938C7.38849 14.5459 7.2886 14.4958 7.1902 14.4431C7.09142 14.3903 6.9945 14.3354 6.89833 14.2778C6.80252 14.2203 6.7082 14.1605 6.61537 14.0985C6.52216 14.0365 6.43082 13.9722 6.34132 13.9054C6.25146 13.8389 6.16346 13.7702 6.07693 13.6993C5.99041 13.6284 5.90612 13.5556 5.82331 13.4806C5.7405 13.4056 5.65955 13.3283 5.58046 13.2492C5.50136 13.1705 5.4245 13.0896 5.34912 13.0067C5.27411 12.9239 5.20133 12.8393 5.1304 12.7528C5.05948 12.6666 4.99078 12.5786 4.92431 12.4887C4.85747 12.3989 4.79323 12.3075 4.73122 12.2147C4.6692 12.1219 4.60942 12.0275 4.55186 11.9314C4.4943 11.8356 4.43935 11.7386 4.38662 11.6399C4.33389 11.5415 4.28376 11.4416 4.23586 11.3406C4.18795 11.2396 4.14265 11.1374 4.09995 11.0342C4.05724 10.931 4.01714 10.8266 3.97926 10.7216C3.94176 10.6165 3.90685 10.5103 3.87418 10.4033C3.84187 10.2964 3.81216 10.1887 3.78505 10.0803C3.75758 9.97183 3.73307 9.86302 3.71153 9.75311C3.68962 9.64357 3.67068 9.53365 3.65397 9.42299C3.63764 9.31271 3.6239 9.20168 3.61313 9.09065C3.60199 8.97925 3.59382 8.86785 3.58862 8.75608C3.58305 8.64467 3.58008 8.5329 3.58008 8.42113C3.58008 8.30936 3.58305 8.19796 3.58862 8.08619C3.59382 7.97442 3.60199 7.86302 3.61313 7.75199C3.6239 7.64059 3.63764 7.52993 3.65397 7.41927C3.67068 7.30861 3.68962 7.1987 3.71153 7.08915C3.73307 6.97961 3.75758 6.87044 3.78505 6.76201C3.81216 6.65358 3.84187 6.54589 3.87418 6.43895C3.90685 6.332 3.94176 6.22617 3.97926 6.12071C4.01714 6.01562 4.05724 5.91128 4.09995 5.80805C4.14265 5.70482 4.18795 5.6027 4.23586 5.5017C4.28376 5.40069 4.33389 5.30118 4.38662 5.2024C4.43935 5.104 4.4943 5.00671 4.55186 4.9109C4.60942 4.8151 4.6692 4.72078 4.73122 4.62757C4.79323 4.53474 4.85747 4.44339 4.92431 4.3539C4.99078 4.26404 5.05948 4.17603 5.1304 4.08951C5.20133 4.00299 5.27411 3.9187 5.34912 3.83589C5.4245 3.75308 5.50136 3.67213 5.58046 3.59303C5.65955 3.51394 5.7405 3.43707 5.82331 3.36206C5.90612 3.28705 5.99041 3.2139 6.07693 3.14298C6.16346 3.07205 6.25146 3.00336 6.34132 2.93689C6.43082 2.87042 6.52216 2.80581 6.61537 2.74379C6.7082 2.68178 6.80252 2.62199 6.89833 2.56444C6.9945 2.50725 7.09142 2.45192 7.1902 2.39956C7.2886 2.34684 7.38849 2.29633 7.48949 2.2488C7.5905 2.2009 7.69261 2.1556 7.79584 2.11289C7.89907 2.07019 8.00342 2.03009 8.10851 1.99221C8.21397 1.95471 8.32017 1.91943 8.42711 1.88712C8.53406 1.85482 8.64174 1.82474 8.7498 1.79763C8.85823 1.77052 8.9674 1.74602 9.07695 1.72448C9.18649 1.70257 9.29678 1.68326 9.40744 1.66692C9.51772 1.65058 9.62875 1.63684 9.73978 1.62607C9.85118 1.61493 9.96258 1.60676 10.0744 1.60119C10.1858 1.596 10.2975 1.59303 10.4093 1.59303C10.5211 1.59303 10.6328 1.596 10.7442 1.60119C10.856 1.60676 10.9674 1.61493 11.0788 1.62607C11.1898 1.63684 11.3009 1.65058 11.4115 1.66692C11.5218 1.68326 11.6321 1.70257 11.7416 1.72448C11.8512 1.74602 11.9604 1.77052 12.0688 1.79763C12.1772 1.82474 12.2849 1.85482 12.3919 1.88712C12.4988 1.91943 12.6046 1.95471 12.7101 1.99221C12.8152 2.03009 12.9195 2.07019 13.0228 2.11289C13.126 2.1556 13.2281 2.2009 13.3291 2.2488C13.4301 2.29633 13.53 2.34684 13.6284 2.39956C13.7272 2.45192 13.8245 2.50725 13.9203 2.56444C14.0161 2.62199 14.1104 2.68178 14.2032 2.74379C14.2964 2.80581 14.3878 2.87042 14.4773 2.93689C14.5671 3.00336 14.6551 3.07205 14.7417 3.14298C14.8282 3.2139 14.9128 3.28705 14.9957 3.36206C15.0785 3.43707 15.159 3.51394 15.2381 3.59303C15.3172 3.67213 15.3945 3.75308 15.4695 3.83589C15.5445 3.9187 15.6173 4.00299 15.6882 4.08951C15.7591 4.17603 15.8278 4.26404 15.8947 4.3539C15.9611 4.44339 16.0254 4.53474 16.0874 4.62757C16.1498 4.72078 16.2095 4.8151 16.2667 4.9109C16.3243 5.00671 16.3792 5.104 16.432 5.2024C16.4847 5.30118 16.5348 5.40069 16.5827 5.5017C16.6306 5.6027 16.6759 5.70482 16.7186 5.80805C16.7614 5.91128 16.8015 6.01562 16.8393 6.12071C16.8768 6.22617 16.9121 6.332 16.9444 6.43895C16.9767 6.54589 17.0068 6.65358 17.0339 6.76201C17.061 6.87044 17.0855 6.97961 17.1071 7.08915C17.129 7.1987 17.1483 7.30861 17.1646 7.41927C17.181 7.52993 17.1947 7.64059 17.2055 7.75199C17.2166 7.86302 17.2248 7.97442 17.2303 8.08619C17.2355 8.19796 17.2385 8.30936 17.2385 8.42113Z" fill="#232121"/>
<path d="M30.6599 36.9107C30.3068 35.6158 29.0115 34.9096 27.7163 35.2627C17.7081 38.0878 12.1741 33.2612 11.821 23.3722C11.821 22.0773 10.7612 21.0179 9.46596 21.0179C8.17112 21.0179 7.11133 22.0773 7.11133 23.3722C7.11133 35.145 15 43.7388 28.8938 39.8539C30.3068 39.383 31.013 38.0878 30.6599 36.9107Z" fill="#232121"/>
</svg>
