<svg width="77" height="77" viewBox="0 0 77 77" fill="none" xmlns="http://www.w3.org/2000/svg">
<g clip-path="url(#clip0_121_171)">
<path d="M68.3857 24.1033C67.5346 24.1033 66.747 23.5508 66.4896 22.6949C64.2052 15.1308 59.3166 8.46718 52.7235 3.93355C51.823 3.31379 51.5935 2.07947 52.2148 1.17676C52.8349 0.275157 54.0707 0.0482712 54.9727 0.6684C62.3039 5.71039 67.7436 13.1259 70.2854 21.5486C70.6029 22.5957 70.0091 23.7019 68.9616 24.0183C68.7704 24.0759 68.5765 24.1033 68.3868 24.1033H68.3857Z" fill="#232121"/>
<path d="M19.4774 69.0304C19.2439 69.0304 19.0073 68.9892 18.7778 68.9027C11.441 66.1347 5.18179 61.3193 0.676751 54.9828C0.0432538 54.0894 0.252315 52.8528 1.14426 52.219C2.03658 51.5855 3.27498 51.7945 3.90885 52.6865C7.95603 58.3798 13.5814 62.7047 20.1759 65.1949C21.2012 65.5822 21.7181 66.7259 21.3304 67.7482C21.0307 68.541 20.2762 69.0304 19.476 69.0304H19.4774Z" fill="#232121"/>
<mask id="mask0_121_171" style="mask-type:luminance" maskUnits="userSpaceOnUse" x="41" y="28" width="36" height="49">
<path d="M41.2578 28.0432H76.978V77H41.2578V28.0432Z" fill="white"/>
</mask>
<g mask="url(#mask0_121_171)">
<path d="M59.1343 28.0681C49.2791 28.0681 41.2891 36.0551 41.2891 45.9074C41.2891 59.7816 59.1343 76.9599 59.1343 76.9599C59.1343 76.9599 76.9792 59.7816 76.9792 45.9074C76.9792 36.0551 68.991 28.0681 59.1343 28.0681ZM59.1343 51.8536C55.8487 51.8536 53.1859 49.1918 53.1859 45.9074C53.1859 42.6229 55.8487 39.9608 59.1343 39.9608C62.4199 39.9608 65.0827 42.6229 65.0827 45.9074C65.0827 49.1918 62.4199 51.8536 59.1343 51.8536Z" fill="#003781"/>
</g>
<path d="M46.5136 29.8037C49.9956 27.0703 54.3726 25.4242 59.1334 25.4242C60.4491 25.4242 61.7328 25.5601 62.9797 25.7977C62.4231 23.3488 61.5831 21.0086 60.4862 18.8167H45.3848C45.9993 22.2014 46.3829 25.9021 46.5147 29.8022L46.5136 29.8037Z" fill="#232121"/>
<path d="M42.1594 16.1753C40.026 7.11478 36.2826 1.63982 32.6959 1.63982C29.1092 1.63982 25.3661 7.11478 23.2324 16.1753H42.1594Z" fill="#232121"/>
<path d="M42.7159 18.8181H22.6794C21.9193 22.8928 21.4629 27.5471 21.4629 32.6923C21.4629 37.8375 21.9207 42.4922 22.6794 46.5669H38.6702C38.6616 46.347 38.6453 46.1257 38.6453 45.9059C38.6453 40.6493 40.6538 35.8628 43.9227 32.2334C43.8952 27.2738 43.4526 22.7677 42.7159 18.8181Z" fill="#232121"/>
<path d="M58.9956 16.1753C54.5184 9.06503 47.2406 3.89902 38.7051 2.22541C41.317 5.20463 43.4615 10.0751 44.8458 16.1753H58.9956Z" fill="#232121"/>
<path d="M41.8778 58.1065C40.9279 60.1199 39.8666 61.8362 38.7051 63.1596C40.4552 62.8161 42.1488 62.3185 43.7805 61.6947C43.1013 60.5224 42.4622 59.3241 41.8766 58.105L41.8778 58.1065Z" fill="#232121"/>
<path d="M26.687 2.22541C18.1515 3.8979 10.8737 9.06503 6.39648 16.1753H20.5462C21.932 10.0765 24.0765 5.20463 26.687 2.22541Z" fill="#232121"/>
<path d="M38.9302 49.2097H23.2324C25.3661 58.2699 29.1092 63.7448 32.6959 63.7448C35.4631 63.7448 38.3227 60.473 40.4646 54.8179C39.762 52.9542 39.2314 51.0745 38.9302 49.2097Z" fill="#232121"/>
<path d="M6.39648 49.2097C10.8737 56.32 18.1515 61.4856 26.687 63.1596C24.075 60.18 21.9305 55.31 20.5462 49.2097H6.39648Z" fill="#232121"/>
<path d="M18.8167 32.6923C18.8167 27.7164 19.243 23.0302 20.0087 18.8181H4.90724C2.81663 22.9942 1.63281 27.7038 1.63281 32.6923C1.63281 37.6808 2.81663 42.3905 4.90724 46.5669H20.0087C19.243 42.3548 18.8167 37.6671 18.8167 32.6923Z" fill="#232121"/>
</g>
<defs>
<clipPath id="clip0_121_171">
<rect width="77" height="77" fill="white"/>
</clipPath>
</defs>
</svg>
