<svg width="76" height="76" viewBox="0 0 76 76" fill="none" xmlns="http://www.w3.org/2000/svg">
<path d="M37.2918 23.8775C43.841 23.8775 49.1767 18.5419 49.1767 11.9802C49.1767 5.41852 43.841 0.0703659 37.2918 0.0703659C30.7425 0.0703659 25.4072 5.40569 25.4072 11.9674C25.4072 18.5294 30.7425 23.8647 37.2918 23.8647V23.8775ZM34.0045 14.6352C34.3838 14.0535 35.1678 13.8894 35.7495 14.2687C36.2805 14.6227 36.8871 14.7745 37.5194 14.7364C38.2146 14.6986 38.6951 14.4329 38.7963 14.3317C38.8974 14.1928 38.9609 13.9777 38.9103 13.8259C38.8344 13.5859 38.5056 13.4217 38.3033 13.3458C38.1641 13.2952 38.0123 13.2447 37.8481 13.1941C37.6586 13.1307 37.4688 13.0676 37.2665 13.0042C36.2805 12.6502 34.9021 12.0179 34.3461 10.5387C34.0173 9.6411 34.1691 8.65519 34.7632 7.82064C35.2056 7.21369 35.8378 6.78377 36.5459 6.55617V6.07567C36.5712 5.3804 37.1781 4.81157 37.8481 4.83686C38.5434 4.84932 39.0998 5.43098 39.0873 6.12625V6.61958C39.555 6.77131 40.0355 6.98609 40.4273 7.26427C40.9965 7.6689 41.1229 8.46533 40.7183 9.03416C40.3137 9.60335 39.5172 9.7298 38.948 9.32517C38.6574 9.12286 38.0251 8.92054 37.6711 8.88242C37.2918 8.88242 36.963 9.07228 36.8113 9.28705C36.7735 9.33763 36.6595 9.51466 36.7101 9.6411C36.8494 10.0204 37.2793 10.3239 38.1135 10.6146C38.2905 10.678 38.4675 10.7285 38.6321 10.7791C38.8344 10.8422 39.0367 10.9056 39.2009 10.9686C40.3008 11.3861 41.0595 12.1444 41.3501 13.1054C41.6159 14.0411 41.4136 15.0527 40.7813 15.8868C40.3895 16.3926 39.6686 16.7973 38.8344 17.0373V17.7707C38.7963 18.4535 38.2399 19.0099 37.5575 19.0099H37.5322C36.8365 18.9971 36.2805 18.4158 36.293 17.7201V17.1513C35.623 17.012 34.9655 16.7595 34.3714 16.3802C33.7897 16.0008 33.6252 15.2169 34.0045 14.6352Z" fill="#003781"/>
<path d="M19.883 45.409V45.2573L19.8062 45.3332C19.8062 45.3332 19.8447 45.409 19.883 45.409Z" fill="#232121"/>
<mask id="mask0_108_141" style="mask-type:luminance" maskUnits="userSpaceOnUse" x="3" y="25" width="70" height="51">
<path d="M3.7998 25.6148H72.1529V76H3.7998V25.6148Z" fill="white"/>
</mask>
<g mask="url(#mask0_108_141)">
<path d="M71.7692 49.3157C70.3658 47.6594 67.4326 46.863 64.5753 48.5446C64.5247 48.5698 64.4866 48.5951 64.436 48.6329C64.1959 48.557 63.943 48.5064 63.6777 48.4811C63.4878 48.4687 63.3361 48.4811 63.159 48.4811C62.8556 36.5585 50.908 26.9244 36.2545 26.9244C29.9578 26.9244 23.9272 28.7071 19.1101 31.9566C17.3527 29.2763 14.6218 26.4061 10.8035 25.7108C10.3483 25.6221 9.88062 25.7992 9.58961 26.166C9.29897 26.5326 9.23556 27.0255 9.41259 27.4554C9.43787 27.5188 11.9162 33.3724 12.3964 38.7081C11.5116 40.0862 10.8035 41.5401 10.2977 43.0447H8.38855C5.84715 43.0447 3.78662 44.8021 3.78662 46.9642V54.0444C3.78662 56.2061 5.84715 57.9636 8.38855 57.9636H11.6633C12.801 60.0497 14.3436 61.9464 16.2022 63.6533V70.4173C16.2022 73.4645 18.6674 75.9296 21.7146 75.9296C24.7618 75.9296 27.2269 73.4516 27.2269 70.4173V69.6839C30.1224 70.5309 33.1439 70.9736 36.2545 70.9736C38.492 70.9736 40.6922 70.7585 42.8037 70.3161V70.4173C42.8037 73.4645 45.2689 75.9296 48.316 75.9296C51.3629 75.9296 53.8284 73.4516 53.8284 70.4173V65.6508C56.4328 63.8175 58.6455 61.529 60.2259 59.0257C61.3133 57.2936 62.0973 55.4856 62.5902 53.6017C62.6408 53.8421 62.7167 54.0697 62.8178 54.297C63.2983 55.3972 64.2465 56.0544 65.3464 56.0544H65.3717C66.421 56.0544 67.2556 55.4097 67.5462 54.3857C67.8878 53.1846 67.4703 51.5914 66.6233 50.365C68.1279 49.8339 69.3542 50.3903 69.8347 50.9595C70.2899 51.4902 71.0863 51.5536 71.6174 51.0984C72.1485 50.6432 72.2119 49.8468 71.7567 49.3157H71.7692ZM46.2298 36.3943C45.977 36.7231 45.6104 36.8873 45.2311 36.8873C44.9654 36.8873 44.6872 36.7989 44.4596 36.6219C37.2785 31.0843 30.1601 35.8379 29.8695 36.0403C29.2878 36.4321 28.5038 36.2931 28.112 35.7115C27.7202 35.1298 27.8591 34.3587 28.428 33.9541C28.5167 33.891 37.3291 27.9235 46.0022 34.6116C46.5586 35.0415 46.6598 35.8255 46.2298 36.3815V36.3943ZM19.8813 47.7859C18.5285 47.7859 17.4286 46.686 17.4286 45.3332C17.4286 43.9804 18.5285 42.8805 19.8813 42.8805C21.2341 42.8805 22.334 43.9804 22.334 45.3332C22.334 46.686 21.2341 47.7859 19.8813 47.7859Z" fill="#232121"/>
</g>
</svg>
