<svg width="76" height="77" viewBox="0 0 76 77" fill="none" xmlns="http://www.w3.org/2000/svg">
<path d="M36.7564 0.672116C35.8599 1.22652 35.6982 1.70591 35.6982 3.84851V5.76609H39.8138V3.75865C39.8138 1.811 39.7991 1.73599 39.4319 1.27145C38.6674 0.357595 37.6386 0.117713 36.7564 0.672116Z" fill="#003781"/>
<path d="M34.3744 6.97924C31.7876 7.2492 28.7151 7.99818 26.2015 8.98705C18.9988 11.8337 13.2659 17.7364 11.0023 24.6284C10.3554 26.621 10.2967 27.2203 10.6937 27.6247C11.1786 28.1193 11.7961 28.0295 12.5163 27.3551C13.6041 26.3213 15.2945 25.2426 16.294 24.9281C18.1317 24.3436 20.3366 24.5386 22.1003 25.4376C23.9086 26.3514 25.2167 27.595 26.6131 29.7372C28.0096 31.8798 28.5095 31.8947 29.7443 29.8271C30.9054 27.8795 32.5078 26.3514 34.3744 25.3926C36.1531 24.4936 38.4024 24.3436 40.269 25.0031C42.327 25.7369 44.5763 27.6997 45.8404 29.8873C46.9868 31.8349 47.6191 31.8947 48.6479 30.1869C51.0441 26.1416 54.4248 24.1639 58.0852 24.6733C59.7165 24.898 60.966 25.5575 62.833 27.1903C63.8031 28.0295 64.4061 28.1643 64.8763 27.6399C65.2142 27.2653 65.1263 26.3963 64.5823 24.7183C63.6122 21.7669 61.8482 18.6655 59.6872 16.1783C53.9986 9.60123 44.0617 5.99037 34.3744 6.97924Z" fill="#003781"/>
<path d="M15.2798 32.0299C15.706 30.8765 16.7202 29.9025 17.9403 29.4981C18.7342 29.2434 20.0716 29.3332 20.9245 29.7228C22.8794 30.6065 23.7763 33.1387 22.8204 35.1015C22.4092 35.9404 21.8946 36.4647 20.9391 36.9742C20.0129 37.4684 18.2489 37.4387 17.2348 36.8992C15.8677 36.165 15.1328 34.9214 15.1182 33.3785C15.1182 32.8691 15.1915 32.2697 15.2798 32.0299Z" fill="#232121"/>
<path d="M55.7337 29.4981C53.911 30.1127 52.8965 31.4911 52.8965 33.3786C52.8965 35.4762 54.4402 37.1391 56.5568 37.334C57.586 37.4387 58.4088 37.2141 59.3057 36.585C61.7899 34.8917 61.4223 30.9515 58.6735 29.7079C57.8209 29.3184 56.5275 29.2285 55.7337 29.4981Z" fill="#232121"/>
<path d="M13.0454 41.4688C13.9716 39.581 15.1033 38.7269 16.985 38.4424C19.0576 38.1276 21.6298 38.3225 22.9236 38.8918C24.658 39.656 25.2165 40.7347 29.0092 50.6976C30.6849 55.1172 30.7289 55.2973 29.9207 55.6716C29.1122 56.0463 29.0092 55.8814 26.0544 50.0686C24.5256 47.057 23.2615 44.6148 23.2322 44.6449C23.1879 44.6749 25.5548 59.2825 25.7897 60.496L25.8781 60.9004H24.5407C23.3645 60.9004 23.2029 60.9305 23.2029 61.1551C23.1967 61.2153 23.1651 61.802 23.1142 62.7448C23.0376 64.1611 22.9178 66.3802 22.7766 68.8262C22.3797 76.0925 22.3647 76.2421 22.0268 76.5121C21.5712 76.8864 21.0713 76.8567 20.748 76.4222C20.498 76.1073 20.4247 75.2833 20.0718 68.8262C19.8365 64.841 19.6309 61.4251 19.5865 61.2302C19.5425 60.9906 19.4249 60.9004 19.1016 60.9004H18.69L18.6017 62.2788C18.5577 63.043 18.3668 66.4589 18.1901 69.8748C17.8815 75.3732 17.8229 76.1073 17.5729 76.4222C17.2493 76.8567 16.7497 76.8864 16.2791 76.5121C15.9559 76.2421 15.9412 76.0925 15.5443 68.9758C15.3617 65.8856 15.2148 63.1191 15.1514 61.9212C15.1327 61.5744 15.1213 61.359 15.118 61.3052V60.9004H13.7949C13.0747 60.9004 12.4722 60.8555 12.4722 60.8105C12.4722 60.7712 12.732 59.1871 13.1146 56.8566L13.115 56.854C13.3148 55.6367 13.5479 54.216 13.7949 52.7054C14.5301 48.2854 15.118 44.6597 15.0887 44.6449C15.0594 44.6148 13.7949 47.057 12.2515 50.0686C9.29705 55.8666 9.1794 56.0315 8.4002 55.6716C7.60633 55.2973 7.65068 55.0575 9.01777 51.447C10.9874 46.278 12.4131 42.7421 13.0454 41.4688Z" fill="#232121"/>
<path d="M54.6597 38.4421C52.6461 38.7417 51.1321 39.7603 50.2942 41.3786C49.7357 42.4573 48.6035 45.5736 46.8692 50.8023C45.4431 55.1172 45.4137 55.3118 46.1783 55.6716C47.0015 56.0459 47.0894 55.9112 49.8236 49.9483L52.3815 44.36L52.4845 46.2928C52.6755 50.1729 52.6164 56.2257 52.2492 65.7545C52.2371 66.0813 52.2254 66.3977 52.214 66.7044L52.1983 67.1296C51.9127 74.8251 51.8717 75.9291 52.376 76.3427C52.4603 76.4118 52.56 76.4619 52.6765 76.5202C52.7092 76.5362 52.7429 76.5533 52.7784 76.5719C53.5426 76.9762 54.5571 76.6465 54.9687 75.8674C55.0274 75.7326 55.4976 71.5826 55.9829 66.6535C56.4828 61.7244 56.909 57.6642 56.9384 57.6193C56.9823 57.5892 57.0117 57.649 57.0117 57.7689C57.0117 57.8889 57.4086 61.8893 57.8939 66.6684C58.3787 71.4478 58.7757 75.433 58.7757 75.5377C58.7757 75.6279 58.952 75.9124 59.158 76.1671C59.6428 76.7516 60.3781 76.9161 61.0836 76.5719C61.1173 76.5555 61.1492 76.5403 61.1807 76.5258C61.2874 76.4757 61.3805 76.4319 61.4608 76.371C62.0028 75.9577 61.9581 74.7449 61.6107 65.3349C61.5971 64.968 61.5832 64.5885 61.5685 64.1964C61.2452 55.0723 61.2013 52.3456 61.2892 49.2141C61.3629 47.1168 61.4366 45.154 61.4512 44.8695C61.4952 44.435 61.8921 45.2141 64.0527 49.9483C66.7869 55.9112 66.8752 56.0459 67.6984 55.6716C68.4776 55.3118 68.4479 55.1172 66.9489 50.6077C65.1702 45.2438 64.1557 42.4722 63.5972 41.3934C62.7153 39.6857 61.2892 38.7566 59.0989 38.4268C57.9525 38.2623 55.8062 38.2623 54.6597 38.4421Z" fill="#232121"/>
<path d="M33.3603 60.1811C31.8902 59.4321 31.8019 57.3943 33.1836 56.4507C33.8158 56.0162 34.9627 55.9862 35.6975 56.3757C36.2414 56.6601 36.8733 57.6939 36.8733 58.2933C36.8733 58.8477 36.2268 59.8815 35.6975 60.1663C35.0506 60.5257 34.0068 60.5257 33.3603 60.1811Z" fill="#232121"/>
<path d="M27.0244 57.8291C26.8042 58.0991 27.2007 58.8332 28.4648 60.4511C29.5823 61.8896 30.2289 62.5038 31.0964 62.9832C31.5373 63.238 31.8312 63.5076 31.8899 63.7474C32.0515 64.3616 32.0369 67.8975 31.8459 72.1671C31.6843 75.9877 31.6843 76.1823 31.9489 76.482C32.2722 76.8567 32.7721 76.8715 33.169 76.5121C33.4186 76.3023 33.5509 75.6881 33.9479 72.9012C34.2565 70.8336 34.4771 69.665 34.5508 69.8299C34.6094 69.9948 34.8594 71.4931 35.1093 73.186C35.4179 75.2685 35.6386 76.3323 35.8002 76.5121C36.1088 76.8567 36.6084 76.8567 37.0203 76.5121L37.3583 76.2273L37.123 71.3732C36.9173 67.0583 36.932 63.6123 37.182 63.3876C37.1999 63.369 37.3304 63.2992 37.5107 63.2023C37.6221 63.1425 37.7526 63.0723 37.8875 62.9981L38.5194 62.6836L38.74 62.9981C39.5192 64.1217 40.651 65.2903 41.2979 65.6201C41.9741 65.9795 42.0181 66.0397 42.0181 66.564C42.0181 66.8637 41.8858 67.8975 41.7241 68.8414L41.6996 68.9844C41.4559 70.4144 41.3903 70.7991 41.5277 70.9016C41.5783 70.9394 41.6563 70.9391 41.7626 70.9387C41.774 70.9387 41.7857 70.9387 41.7975 70.9387H42.1797L42.0621 72.6914C42.0034 73.6654 41.9444 74.9239 41.9444 75.5084C41.9444 76.5121 41.9591 76.557 42.356 76.6918C43.0619 76.9465 43.2529 76.5422 43.6351 74.085C43.8261 72.8864 44.017 71.7776 44.0761 71.6279C44.1347 71.463 44.3407 72.3769 44.561 73.8752C44.9725 76.4671 45.0902 76.7817 45.7078 76.7817C46.281 76.7817 46.4573 76.3621 46.3693 75.1485C46.3473 74.8388 46.3187 74.3914 46.288 73.915V73.9135C46.2561 73.4222 46.2227 72.9001 46.1927 72.4668L46.1047 70.9387H46.9719L46.5603 68.7363C46.325 67.5076 46.178 66.3991 46.222 66.2491C46.2663 66.1143 46.5456 65.8596 46.8542 65.7099C47.5011 65.3653 48.8975 63.8822 49.7207 62.6535C50.2056 61.9494 50.2646 61.7697 50.103 61.5748C50 61.4552 49.8384 61.3501 49.75 61.3501C49.6617 61.3501 49.0592 61.8744 48.3976 62.5335C46.7219 64.2116 46.6336 64.2417 44.0614 64.2417C42.7529 64.2417 41.7975 64.1667 41.6065 64.062C41.1949 63.8373 39.9748 62.7586 39.6365 62.3089C39.5529 62.2057 39.4943 62.1332 39.4771 62.0515C39.4371 61.8618 39.6222 61.6227 40.2394 60.8258C42.0914 58.4585 42.4004 57.7392 41.5918 57.6345C41.3272 57.5896 40.9596 57.8893 39.8718 59.0129C38.1521 60.7656 37.0497 61.4099 36.1821 61.1704C35.8295 61.0653 34.8887 61.0504 33.6979 61.1102L31.7722 61.2001L30.7288 60.4511C30.1702 60.0467 29.288 59.2376 28.7738 58.6535C27.8183 57.5747 27.392 57.3798 27.0244 57.8291Z" fill="#232121"/>
<path d="M42.313 61.9346C42.313 61.1707 42.5039 60.8109 43.0918 60.4515C43.3711 60.2717 43.8267 60.1518 44.209 60.1518C44.7529 60.1518 44.9295 60.2417 45.4291 60.7511C45.9876 61.3204 46.017 61.3954 45.9437 62.0397C45.8553 62.8336 45.4437 63.3579 44.6942 63.6126C43.5771 63.9873 42.313 63.1032 42.313 61.9346Z" fill="#232121"/>
</svg>
